<svg width="18" height="17" viewBox="0 0 18 17" fill="none" xmlns="http://www.w3.org/2000/svg">
    <path d="M11.4884 15.3444H16.334V14.6781C15.9975 14.3686 15.6206 14.133 15.2034 13.9715C14.7861 13.81 14.3554 13.7292 13.9112 13.7292C13.467 13.7292 13.0363 13.81 12.6191 13.9715C12.2018 14.133 11.8249 14.3686 11.4884 14.6781V15.3444ZM13.9112 12.9216C14.2477 12.9216 14.5339 12.804 14.7697 12.5687C15.0055 12.3334 15.1232 12.0473 15.1226 11.7102C15.1221 11.3732 15.0044 11.0873 14.7697 10.8525C14.5349 10.6178 14.2488 10.4999 13.9112 10.4988C13.5736 10.4977 13.2877 10.6156 13.0535 10.8525C12.8193 11.0894 12.7014 11.3753 12.6998 11.7102C12.6982 12.0451 12.8161 12.3313 13.0535 12.5687C13.291 12.8061 13.5769 12.9238 13.9112 12.9216ZM9.10599 5.24941C8.32531 5.24941 7.65904 5.52534 7.10718 6.0772C6.55531 6.62906 6.27938 7.29533 6.27938 8.07601C6.27938 8.72209 6.46109 9.28741 6.82452 9.77197C7.18794 10.2565 7.66577 10.593 8.25801 10.7815C8.25801 10.4719 8.26151 10.1758 8.26851 9.89311C8.2755 9.61045 8.33258 9.35471 8.43972 9.12589C8.25128 9.01821 8.11345 8.87015 8.02623 8.68171C7.939 8.49327 7.89512 8.29137 7.89459 8.07601C7.89459 7.73951 8.0125 7.45362 8.24832 7.21834C8.48413 6.98306 8.77003 6.86515 9.10599 6.86461C9.30789 6.86461 9.49983 6.91522 9.68181 7.01644C9.86379 7.11766 10.0151 7.25549 10.1357 7.42993C10.2837 7.36263 10.4385 7.31552 10.6 7.2886C10.7616 7.26168 10.9231 7.24822 11.0846 7.24822H11.8115C11.6365 6.66944 11.3035 6.19161 10.8124 5.81473C10.3214 5.43785 9.75261 5.24941 9.10599 5.24941ZM6.84471 16.152L6.52167 13.5677C6.34668 13.5004 6.18193 13.4196 6.02741 13.3254C5.87289 13.2312 5.72133 13.1302 5.57273 13.0226L3.17012 14.0321L0.949219 10.196L3.02879 8.62114C3.01533 8.52692 3.0086 8.4362 3.0086 8.34898V7.80385C3.0086 7.71609 3.01533 7.6251 3.02879 7.53088L0.949219 5.95606L3.17012 2.11995L5.57273 3.12945C5.72079 3.02177 5.87558 2.92082 6.0371 2.8266C6.19862 2.73238 6.36015 2.65162 6.52167 2.58432L6.84471 0H11.2865L11.6095 2.58432C11.7845 2.65162 11.9495 2.73238 12.1046 2.8266C12.2597 2.92082 12.411 3.02177 12.5585 3.12945L14.9611 2.11995L17.182 5.95606L15.4658 7.26841H13.4267C13.4132 7.20111 13.3997 7.13058 13.3863 7.05682C13.3728 6.98306 13.3526 6.91226 13.3257 6.84442L15.062 5.53207L14.2746 4.15914L12.2758 5.00713C11.9797 4.69755 11.6532 4.43857 11.2962 4.23021C10.9392 4.02185 10.5524 3.86356 10.1357 3.75534L9.87321 1.6152H8.2782L7.99554 3.75534C7.57828 3.86302 7.19143 4.02131 6.83501 4.23021C6.47859 4.43911 6.15205 4.69135 5.85539 4.98694L3.85658 4.15914L3.06917 5.53207L4.80551 6.82423C4.73821 7.02613 4.6911 7.22803 4.66418 7.42993C4.63726 7.63183 4.6238 7.84719 4.6238 8.07601C4.6238 8.29137 4.63726 8.5 4.66418 8.7019C4.6911 8.9038 4.73821 9.1057 4.80551 9.3076L3.06917 10.62L3.85658 11.9929L5.85539 11.1449C6.17843 11.4814 6.54185 11.7641 6.94566 11.9929C7.34946 12.2217 7.78691 12.3698 8.25801 12.4371V16.152H6.84471ZM11.0846 16.9596C10.7481 16.9596 10.4622 16.842 10.2269 16.6067C9.99166 16.3714 9.87375 16.0853 9.87321 15.7482V10.095C9.87321 9.75851 9.99112 9.47262 10.2269 9.23734C10.4628 9.00206 10.7486 8.88415 11.0846 8.88361H16.7378C17.0743 8.88361 17.3605 9.00152 17.5963 9.23734C17.8321 9.47316 17.9498 9.75905 17.9492 10.095V15.7482C17.9492 16.0847 17.8316 16.3709 17.5963 16.6067C17.361 16.8425 17.0749 16.9602 16.7378 16.9596H11.0846Z" fill="#F6F6F6"/>
</svg>
