<svg width="40" height="40" viewBox="0 0 40 40" fill="none" xmlns="http://www.w3.org/2000/svg">
    <mask id="mask0_536_11937" style="mask-type:alpha" maskUnits="userSpaceOnUse" x="0" y="0" width="40" height="40">
        <rect width="40" height="40" fill="#D9D9D9"/>
    </mask>
    <g mask="url(#mask0_536_11937)">
        <path d="M20.0007 16.6663H28.0136V14.1663H20.0007V16.6663ZM20.0007 25.833H28.0136V23.333H20.0007V25.833ZM15.0007 18.1084C15.7465 18.1084 16.3816 17.8462 16.9061 17.3218C17.4305 16.7973 17.6927 16.1622 17.6927 15.4163C17.6927 14.6708 17.4305 14.0356 16.9061 13.5109C16.3816 12.9865 15.7465 12.7243 15.0007 12.7243C14.2548 12.7243 13.6197 12.9865 13.0952 13.5109C12.5708 14.0356 12.3086 14.6708 12.3086 15.4163C12.3086 16.1622 12.5708 16.7973 13.0952 17.3218C13.6197 17.8462 14.2548 18.1084 15.0007 18.1084ZM15.0007 27.2751C15.7465 27.2751 16.3816 27.0129 16.9061 26.4884C17.4305 25.9637 17.6927 25.3286 17.6927 24.583C17.6927 23.8372 17.4305 23.202 16.9061 22.6776C16.3816 22.1531 15.7465 21.8909 15.0007 21.8909C14.2548 21.8909 13.6197 22.1531 13.0952 22.6776C12.5708 23.202 12.3086 23.8372 12.3086 24.583C12.3086 25.3286 12.5708 25.9637 13.0952 26.4884C13.6197 27.0129 14.2548 27.2751 15.0007 27.2751ZM8.8469 34.1663C8.00496 34.1663 7.29232 33.8747 6.70898 33.2913C6.12565 32.708 5.83398 31.9954 5.83398 31.1534V8.84592C5.83398 8.00398 6.12565 7.29134 6.70898 6.70801C7.29232 6.12467 8.00496 5.83301 8.8469 5.83301H31.1544C31.9963 5.83301 32.709 6.12467 33.2923 6.70801C33.8757 7.29134 34.1673 8.00398 34.1673 8.84592V31.1534C34.1673 31.9954 33.8757 32.708 33.2923 33.2913C32.709 33.8747 31.9963 34.1663 31.1544 34.1663H8.8469ZM8.8469 31.6663H31.1544C31.2827 31.6663 31.4002 31.6129 31.5069 31.5059C31.6138 31.3993 31.6673 31.2818 31.6673 31.1534V8.84592C31.6673 8.71759 31.6138 8.60009 31.5069 8.49342C31.4002 8.38648 31.2827 8.33301 31.1544 8.33301H8.8469C8.71857 8.33301 8.60107 8.38648 8.4944 8.49342C8.38746 8.60009 8.33398 8.71759 8.33398 8.84592V31.1534C8.33398 31.2818 8.38746 31.3993 8.4944 31.5059C8.60107 31.6129 8.71857 31.6663 8.8469 31.6663Z" fill="#424242"/>
    </g>
</svg>
