<svg width="25" height="25" viewBox="0 0 25 25" fill="none" xmlns="http://www.w3.org/2000/svg">
    <path fill-rule="evenodd" clip-rule="evenodd" d="M8.74997 13.5C8.74997 11.4289 10.4289 9.75 12.5 9.75C14.571 9.75 16.25 11.4289 16.25 13.5C16.25 15.5711 14.571 17.25 12.5 17.25C10.4289 17.25 8.74997 15.5711 8.74997 13.5ZM12.5 11.25C11.2573 11.25 10.25 12.2574 10.25 13.5C10.25 14.7426 11.2573 15.75 12.5 15.75C13.7426 15.75 14.75 14.7426 14.75 13.5C14.75 12.2574 13.7426 11.25 12.5 11.25Z" fill="black"/>
    <path fill-rule="evenodd" clip-rule="evenodd" d="M11.1161 6.25C10.0709 6.25 9.22366 7.09728 9.22366 8.14245C9.22366 8.80841 8.71243 9.36283 8.04866 9.41674L5.81906 9.59782C5.38129 9.63337 5.02126 9.95709 4.93955 10.3886C4.49081 12.7586 4.45735 15.1886 4.84066 17.5701L4.93791 18.1743C5.02976 18.7449 5.49939 19.179 6.07545 19.2258L8.01777 19.3835C11.001 19.6258 13.9989 19.6258 16.9822 19.3835L18.9245 19.2258C19.5006 19.179 19.9702 18.7449 20.062 18.1743L20.1593 17.5701C20.5426 15.1886 20.5091 12.7586 20.0604 10.3886C19.9787 9.95709 19.6187 9.63337 19.1809 9.59782L16.9513 9.41674C16.2875 9.36284 15.7763 8.80841 15.7763 8.14245C15.7763 7.09728 14.929 6.25 13.8838 6.25H11.1161ZM7.72973 7.9377C7.83559 6.15944 9.31125 4.75 11.1161 4.75H13.8838C15.6887 4.75 17.1644 6.15944 17.2702 7.9377L19.3023 8.10274C20.4132 8.19296 21.3269 9.01446 21.5342 10.1096C22.0153 12.6503 22.0512 15.2554 21.6402 17.8084L21.543 18.4126C21.3414 19.6652 20.3104 20.6182 19.0459 20.7209L17.1036 20.8786C14.0396 21.1274 10.9604 21.1274 7.89635 20.8786L5.95403 20.7209C4.6895 20.6182 3.65858 19.6652 3.45697 18.4126L3.35972 17.8084C2.94879 15.2554 2.98466 12.6503 3.46574 10.1096C3.67309 9.01446 4.58672 8.19296 5.69764 8.10274L7.72973 7.9377Z" fill="black"/>
</svg>
