<svg width="20" height="20" viewBox="0 0 20 20" fill="none" xmlns="http://www.w3.org/2000/svg">
    <g clip-path="url(#clip0_560_5558)">
        <path d="M0.567662 13.3251H2.17514C2.72177 14.2784 3.93779 14.608 4.89109 14.0612C5.19749 13.8855 5.45161 13.6314 5.62739 13.3251H14.8427C15.3891 14.2782 16.6049 14.608 17.558 14.0616C17.8675 13.8842 18.1236 13.6268 18.2996 13.3164C18.3375 13.3098 18.3739 13.2965 18.4073 13.2773L20.0741 12.2772C20.1234 12.2476 20.1642 12.2057 20.1925 12.1557C20.2209 12.1056 20.2358 12.0491 20.2358 11.9915V8.99139C20.2349 8.95206 20.227 8.9132 20.2124 8.87666C20.2088 8.86684 20.2047 8.8572 20.2001 8.84777C20.1955 8.83811 20.1934 8.82877 20.188 8.81967L19.2823 7.30999L19.5341 6.807C19.6163 6.6422 19.5494 6.44201 19.3848 6.35978C19.3551 6.34499 19.3234 6.3347 19.2907 6.32926L17.5762 6.0432L16.7625 5.90784C12.7711 5.25363 8.67531 5.92468 5.10138 7.81839L4.11867 8.34273L2.61857 8.67602C2.11509 8.7869 1.64283 9.00913 1.23648 9.32641C0.830121 9.64369 0.499987 10.048 0.270315 10.5095C0.24697 10.5556 0.234666 10.6065 0.234375 10.6582L0.234375 12.9917C0.234375 13.1757 0.383587 13.3251 0.567662 13.3251ZM5.12201 12.8583C4.82601 13.5308 4.04092 13.8362 3.36841 13.5402C2.6959 13.2442 2.39057 12.4591 2.68652 11.7866C2.98252 11.1141 3.76761 10.8088 4.44012 11.1047C4.67683 11.2089 4.87805 11.3798 5.01917 11.5965C5.16029 11.8132 5.2352 12.0663 5.23472 12.325C5.23416 12.5086 5.19569 12.6902 5.12173 12.8583H5.12201ZM17.7896 12.8583C17.4936 13.5308 16.7085 13.8362 16.036 13.5402C15.3635 13.2442 15.0581 12.4591 15.3541 11.7866C15.6501 11.1141 16.4352 10.8088 17.1077 11.1047C17.3444 11.2089 17.5456 11.3798 17.6868 11.5965C17.8279 11.8132 17.9028 12.0663 17.9023 12.325C17.9017 12.5086 17.8633 12.6902 17.7893 12.8583H17.7896ZM19.5691 9.99149H18.7357L18.2356 9.32467H19.5691V9.99149ZM12.8532 6.35791C14.1238 6.28977 15.398 6.35986 16.6534 6.56695L16.8286 6.59622L15.0973 8.32471H12.5718L12.8532 6.35791ZM15.2354 8.99142C15.2792 8.99143 15.3225 8.98281 15.363 8.96605C15.4034 8.94929 15.4401 8.92472 15.471 8.89374L17.6355 6.72887L18.7357 6.91256L18.6022 7.17557C18.5772 7.22576 18.5652 7.28147 18.5674 7.33753C18.5697 7.39358 18.586 7.44816 18.615 7.49621L19.3137 8.658H17.5689C17.3847 8.658 17.2355 8.80731 17.2355 8.99142C17.2355 9.06358 17.259 9.13369 17.3023 9.19133L18.3023 10.5249C18.3334 10.5663 18.3736 10.5999 18.4199 10.623C18.4662 10.6462 18.5173 10.6582 18.569 10.6582H19.5691V11.8029L18.569 12.4039C18.569 12.3776 18.5706 12.3513 18.5706 12.325C18.5706 11.2203 17.6751 10.3248 16.5705 10.3248C15.4659 10.3248 14.5704 11.2203 14.5704 12.325C14.5711 12.4248 14.5796 12.5245 14.5957 12.623C14.5974 12.6346 14.5957 12.6467 14.5984 12.6584H11.9529L12.4765 8.99139L15.2354 8.99142ZM12.1729 6.40454L11.8985 8.32471H5.56975C7.62501 7.26142 9.86792 6.60919 12.1729 6.40454ZM0.901053 11.3249H1.56777V10.6582H0.950015C1.14284 10.3224 1.40361 10.0305 1.71565 9.80126C2.0277 9.572 2.38415 9.41037 2.76222 9.32672L4.27125 8.99142H11.8017L11.2794 12.6582H5.87334C5.87334 12.6466 5.87334 12.6346 5.87605 12.623C5.89203 12.5244 5.90046 12.4248 5.9014 12.3248C5.9014 11.2203 5.00589 10.3248 3.90123 10.3248C2.79667 10.3247 1.90116 11.2203 1.90116 12.3248C1.90185 12.4248 1.91039 12.5244 1.92651 12.623C1.92814 12.6346 1.92651 12.6466 1.92911 12.6582H0.901053V11.3249Z" fill="black"/>
        <path d="M8.90161 9.6582H10.2351V10.3249H8.90161V9.6582Z" fill="black"/>
    </g>
    <defs>
        <clipPath id="clip0_560_5558">
            <rect width="20" height="20" fill="white"/>
        </clipPath>
    </defs>
</svg>
