<svg width="29" height="37" viewBox="0 0 29 37" fill="none" xmlns="http://www.w3.org/2000/svg">
    <path d="M18.2853 1H11.3327C8.18999 1 6.61864 1 5.64233 1.97631C4.66602 2.95262 4.66602 4.52397 4.66602 7.66667V24.3333C4.66602 27.476 4.66602 29.0474 5.64233 30.0237C6.61864 31 8.18999 31 11.3327 31H21.3327C24.4754 31 26.0467 31 27.023 30.0237C27.9993 29.0474 27.9993 27.476 27.9993 24.3333V10.714C27.9993 10.0328 27.9993 9.69217 27.8725 9.38588C27.7456 9.0796 27.5048 8.83874 27.023 8.35702L20.6423 1.97631C20.1606 1.49459 19.9197 1.25373 19.6135 1.12687C19.3072 1 18.9666 1 18.2853 1Z" stroke="#33363F" stroke-width="2"/>
    <path d="M11.332 17.667L21.332 17.667" stroke="#424242" stroke-width="2.5" stroke-linecap="round"/>
    <path d="M11.332 24.333L17.9987 24.333" stroke="#424242" stroke-width="2.5" stroke-linecap="round"/>
    <path d="M17.998 1V7.66667C17.998 9.23801 17.998 10.0237 18.4862 10.5118C18.9744 11 19.76 11 21.3314 11H27.998" stroke="#33363F" stroke-width="2"/>
    <path d="M14.6193 6H7.66667C4.52397 6 2.95262 6 1.97631 6.97631C1 7.95262 1 9.52397 1 12.6667V29.3333C1 32.476 1 34.0474 1.97631 35.0237C2.95262 36 4.52397 36 7.66667 36H17.6667C20.8094 36 22.3807 36 23.357 35.0237C24.3333 34.0474 24.3333 32.476 24.3333 29.3333V15.714C24.3333 15.0328 24.3333 14.6922 24.2065 14.3859C24.0796 14.0796 23.8387 13.8387 23.357 13.357L16.9763 6.97631C16.4946 6.49459 16.2537 6.25373 15.9474 6.12687C15.6412 6 15.3005 6 14.6193 6Z" fill="#BADEFB" stroke="#33363F" stroke-width="2"/>
    <path d="M7.66602 22.667L17.666 22.667" stroke="#424242" stroke-width="2.5" stroke-linecap="round"/>
    <path d="M7.66602 29.333L14.3327 29.333" stroke="#424242" stroke-width="2.5" stroke-linecap="round"/>
    <path d="M14.332 6V12.6667C14.332 14.238 14.332 15.0237 14.8202 15.5118C15.3083 16 16.094 16 17.6654 16H24.332" stroke="#33363F" stroke-width="2"/>
</svg>
