<svg width="131" height="130" viewBox="0 0 131 130" fill="none" xmlns="http://www.w3.org/2000/svg">
    <circle opacity="0.1" cx="65.5" cy="65" r="65" fill="#F8A6BD"/>
    <circle cx="65.5" cy="65" r="45" fill="#DB2424"/>
    <path d="M65.5001 51.6666C58.1534 51.6666 52.1667 57.6533 52.1667 65C52.1667 72.3466 58.1534 78.3333 65.5001 78.3333C72.8467 78.3333 78.8334 72.3466 78.8334 65C78.8334 57.6533 72.8467 51.6666 65.5001 51.6666ZM71.8734 61.9333L64.3134 69.4933C64.1267 69.68 63.8734 69.7866 63.6067 69.7866C63.3401 69.7866 63.0867 69.68 62.9001 69.4933L59.1267 65.72C58.7401 65.3333 58.7401 64.6933 59.1267 64.3066C59.5134 63.92 60.1534 63.92 60.5401 64.3066L63.6067 67.3733L70.4601 60.52C70.8467 60.1333 71.4867 60.1333 71.8734 60.52C72.2601 60.9066 72.2601 61.5333 71.8734 61.9333Z" fill="#FAF1FF"/>
</svg>
