<svg width="20" height="20" viewBox="0 0 20 20" fill="none" xmlns="http://www.w3.org/2000/svg">
    <path d="M10.625 5.8335C10.625 5.48832 10.3452 5.2085 10 5.2085C9.65486 5.2085 9.37504 5.48832 9.37504 5.8335V10.0002C9.37504 10.2157 9.48605 10.416 9.66879 10.5302L12.1688 12.0927C12.4615 12.2756 12.8471 12.1866 13.03 11.8939C13.213 11.6012 13.124 11.2156 12.8313 11.0327L10.625 9.65376V5.8335Z" fill="#414141"/>
    <path fill-rule="evenodd" clip-rule="evenodd" d="M10 2.7085C5.97296 2.7085 2.70837 5.97309 2.70837 10.0002C2.70837 14.0272 5.97296 17.2918 10 17.2918C14.0271 17.2918 17.2917 14.0272 17.2917 10.0002C17.2917 5.97309 14.0271 2.7085 10 2.7085ZM3.95837 10.0002C3.95837 6.66344 6.66332 3.9585 10 3.9585C13.3368 3.9585 16.0417 6.66344 16.0417 10.0002C16.0417 13.3369 13.3368 16.0418 10 16.0418C6.66332 16.0418 3.95837 13.3369 3.95837 10.0002Z" fill="#414141"/>
</svg>
