<svg width="26" height="32" viewBox="0 0 26 32" fill="none" xmlns="http://www.w3.org/2000/svg">
    <path d="M13 18.9491C13.8097 18.9491 14.4983 18.6655 15.0658 18.0982C15.6331 17.5307 15.9167 16.8421 15.9167 16.0324C15.9167 15.2227 15.6331 14.5341 15.0658 13.9666C14.4983 13.3994 13.8097 13.1157 13 13.1157C12.1903 13.1157 11.5017 13.3994 10.9342 13.9666C10.3669 14.5341 10.0833 15.2227 10.0833 16.0324C10.0833 16.8421 10.3669 17.5307 10.9342 18.0982C11.5017 18.6655 12.1903 18.9491 13 18.9491ZM6.75 25.1028H19.25V24.497C19.25 23.9051 19.0908 23.3795 18.7725 22.9203C18.4542 22.4609 18.0182 22.1082 17.4646 21.8624C16.7746 21.5677 16.0583 21.3396 15.3158 21.1782C14.5733 21.0169 13.8014 20.9362 13 20.9362C12.1986 20.9362 11.4267 21.0169 10.6842 21.1782C9.94167 21.3396 9.22542 21.5677 8.53542 21.8624C7.98181 22.1082 7.54583 22.4609 7.2275 22.9203C6.90917 23.3795 6.75 23.9051 6.75 24.497V25.1028ZM22.4871 31.8337H3.51292C2.67097 31.8337 1.95833 31.542 1.375 30.9587C0.791667 30.3753 0.5 29.6627 0.5 28.8207V3.17991C0.5 2.33796 0.791667 1.62533 1.375 1.04199C1.95833 0.458659 2.67097 0.166992 3.51292 0.166992H15.9808L25.5 9.68616V28.8207C25.5 29.6627 25.2083 30.3753 24.625 30.9587C24.0417 31.542 23.329 31.8337 22.4871 31.8337ZM22.4871 29.3337C22.6154 29.3337 22.7329 29.2802 22.8396 29.1732C22.9465 29.0666 23 28.9491 23 28.8207V10.7503L14.9167 2.66699H3.51292C3.38458 2.66699 3.26708 2.72046 3.16042 2.82741C3.05347 2.93407 3 3.05158 3 3.17991V28.8207C3 28.9491 3.05347 29.0666 3.16042 29.1732C3.26708 29.2802 3.38458 29.3337 3.51292 29.3337H22.4871Z" fill="#424242"/>
</svg>
