<svg width="20" height="25" viewBox="0 0 20 25" fill="none" xmlns="http://www.w3.org/2000/svg">
    <path d="M18.229 20.6368L18.2296 20.6387L18.0615 20.6757C17.9808 20.6868 17.9021 20.7099 17.8281 20.7441L17.7574 20.7705C16.6398 21.3372 15.4615 21.628 14.2706 21.628C14.0546 21.628 13.6493 21.5708 13.0659 21.458C12.4338 21.3492 11.8022 21.2376 11.1711 21.1234C10.5065 21.0035 9.84148 20.8863 9.17597 20.7718C8.51769 20.6583 8.00855 20.604 7.61995 20.604C7.34545 20.604 7.06741 20.6172 6.79291 20.6432L5.62099 20.7551L6.42199 19.8923C6.50234 19.8062 6.5782 19.7204 6.65116 19.6352C6.9985 19.2332 7.29554 18.7903 7.53573 18.3164C7.76912 17.8437 7.93581 17.3409 8.03105 16.8224C8.13198 16.285 8.18373 15.6791 8.18373 15.0218C8.18373 14.7219 8.14869 14.4242 8.07894 14.1362L7.94523 13.583L12.4224 13.5744C12.5018 13.5676 12.5699 13.5496 12.6365 13.5188C13.1327 13.3571 13.4542 12.9187 13.4542 12.4208C13.454 12.1516 13.3595 11.8909 13.187 11.6843C13.0145 11.4776 12.775 11.338 12.5101 11.2897C12.4733 11.2813 12.4357 11.2764 12.398 11.2752L12.3928 11.2755C12.3817 11.2754 12.3705 11.2749 12.3594 11.2742L12.3012 11.2784H7.39205L7.2937 10.9637C6.77845 9.31064 6.51777 7.91436 6.51777 6.81283C6.51582 6.28394 6.61749 5.75979 6.81702 5.26998C7.00953 4.79544 7.28818 4.36062 7.63891 3.98748C7.9838 3.6217 8.41001 3.32984 8.90565 3.12027C9.39969 2.91167 9.96026 2.8056 10.571 2.8056C13.0559 2.8056 14.3706 3.98652 14.5898 6.41587C14.5936 6.42905 14.5965 6.44287 14.5991 6.45669L14.6078 6.56662L14.6046 6.58944C14.6071 6.63926 14.6213 6.71544 14.6502 6.80511C14.7662 7.5775 15.3914 8.11975 16.1423 8.11975C16.5143 8.11921 16.873 7.98137 17.1497 7.73266C17.4263 7.48395 17.6014 7.14187 17.6414 6.77201H17.6408L17.6498 6.56469C17.6501 6.56147 17.6469 6.5364 17.6456 6.50844L17.6449 6.47533C17.5575 5.51105 17.3242 4.64223 16.9539 3.89973C16.5836 3.16013 16.0934 2.53174 15.4981 2.03256C14.9009 1.53114 14.1822 1.14639 13.3638 0.888927C12.5439 0.630821 11.6294 0.5 10.6471 0.5C9.58354 0.5 8.60062 0.653964 7.72537 0.957712C6.84884 1.26178 6.08674 1.70085 5.46092 2.26142C4.83317 2.8236 4.33817 3.52367 3.98975 4.34234C3.64068 5.16262 3.46357 6.0909 3.46357 7.10308C3.46357 7.58008 3.52786 8.16797 3.65482 8.85003C3.75446 9.39035 3.9065 10.0142 4.10739 10.705L4.27389 11.2787L1.72144 11.2733C1.43591 11.3008 1.17085 11.4336 0.977865 11.6459C0.784883 11.8581 0.677791 12.1346 0.67744 12.4214C0.677798 12.7057 0.783719 12.9797 0.97466 13.1903C1.1656 13.4009 1.42795 13.5331 1.71083 13.5612L1.82076 13.5811L4.93635 13.5837L5.01349 13.9363C5.13146 14.4792 5.19156 15.0353 5.19156 15.5878C5.19156 16.4007 5.1141 17.1306 4.96142 17.7555C4.80939 18.3787 4.58792 18.939 4.3025 19.4186C4.02189 19.8917 3.66688 20.3165 3.25111 20.6766C2.84 21.0324 2.36268 21.3526 1.83426 21.6264C0.982474 21.9096 0.0313711 22.4226 0.192728 23.3204C0.324513 24.0535 1.02265 24.5871 1.76708 24.4884C1.78958 24.4846 1.79022 24.4842 1.80983 24.4749C3.89107 23.5261 5.78106 23.0475 7.43705 23.0475C7.65145 23.0475 7.95102 23.0835 8.32709 23.1548C8.7038 23.2262 9.12069 23.3136 9.56619 23.4158C10.0146 23.5171 10.4787 23.6289 10.9573 23.7517C11.4362 23.8739 11.8972 23.986 12.3407 24.0876C12.7843 24.1895 13.189 24.2795 13.5557 24.3557C13.9241 24.4322 14.2082 24.4695 14.4236 24.4695H14.4892C16.1619 24.4695 17.9378 23.77 18.013 23.7401C18.1769 23.6688 18.6783 23.4827 18.6783 23.4827C19.4745 23.302 19.9637 22.5293 19.7898 21.754C19.632 21.0501 18.949 20.5603 18.229 20.6368Z" fill="black"/>
</svg>
