<svg width="131" height="130" viewBox="0 0 131 130" fill="none" xmlns="http://www.w3.org/2000/svg">
    <circle opacity="0.1" cx="65.5" cy="65" r="65" fill="#F8A6BD"/>
    <circle cx="65.5" cy="65" r="45" fill="#DB2424"/>
    <path d="M68.2096 61.6554C68.5715 62.0725 69.2031 62.1173 69.6202 61.7553C70.0374 61.3933 70.0821 60.7618 69.7202 60.3446L68.2096 61.6554ZM62.7905 68.3446C62.4285 67.9275 61.7969 67.8827 61.3798 68.2447C60.9626 68.6067 60.9179 69.2382 61.2799 69.6554L62.7905 68.3446ZM66.5 58.3333C66.5 57.781 66.0523 57.3333 65.5 57.3333C64.9477 57.3333 64.5 57.781 64.5 58.3333H66.5ZM64.5 71.6666C64.5 72.2189 64.9477 72.6667 65.5 72.6667C66.0523 72.6667 66.5 72.219 66.5 71.6667L64.5 71.6666ZM76.5 65C76.5 71.0751 71.5751 76 65.5 76V78C72.6797 78 78.5 72.1797 78.5 65H76.5ZM65.5 76C59.4249 76 54.5 71.0751 54.5 65H52.5C52.5 72.1797 58.3203 78 65.5 78V76ZM54.5 65C54.5 58.9249 59.4249 54 65.5 54V52C58.3203 52 52.5 57.8203 52.5 65H54.5ZM65.5 54C71.5751 54 76.5 58.9249 76.5 65H78.5C78.5 57.8203 72.6797 52 65.5 52V54ZM65.5 64C64.5653 64 63.7644 63.7456 63.2263 63.3869C62.6812 63.0235 62.5 62.6313 62.5 62.3333H60.5C60.5 63.5081 61.2142 64.4492 62.1169 65.051C63.0265 65.6574 64.2255 66 65.5 66V64ZM62.5 62.3333C62.5 62.0353 62.6812 61.6431 63.2263 61.2798C63.7644 60.921 64.5653 60.6667 65.5 60.6667V58.6667C64.2255 58.6667 63.0265 59.0092 62.1169 59.6157C61.2142 60.2174 60.5 61.1586 60.5 62.3333H62.5ZM65.5 60.6667C66.7739 60.6667 67.7563 61.133 68.2096 61.6554L69.7202 60.3446C68.7902 59.2728 67.1872 58.6667 65.5 58.6667V60.6667ZM65.5 66C66.4347 66 67.2357 66.2544 67.7737 66.6131C68.3188 66.9765 68.5 67.3687 68.5 67.6667H70.5C70.5 66.4919 69.7858 65.5508 68.8831 64.949C67.9735 64.3426 66.7745 64 65.5 64V66ZM64.5 58.3333V59.6667H66.5V58.3333H64.5ZM64.5 70.3333L64.5 71.6666L66.5 71.6667L66.5 70.3334L64.5 70.3333ZM65.5 69.3333C64.2261 69.3333 63.2437 68.8669 62.7905 68.3446L61.2799 69.6554C62.2099 70.7272 63.8128 71.3333 65.5 71.3333L65.5 69.3333ZM68.5 67.6667C68.5 67.9647 68.3188 68.3569 67.7738 68.7202C67.2357 69.079 66.4347 69.3333 65.5 69.3333V71.3333C66.7745 71.3333 67.9735 70.9908 68.8832 70.3843C69.7858 69.7826 70.5 68.8414 70.5 67.6667H68.5ZM64.5 59.6667L64.5 70.3333L66.5 70.3333L66.5 59.6667L64.5 59.6667Z" fill="white"/>
</svg>
