<svg width="16" height="16" viewBox="0 0 16 16" fill="none" xmlns="http://www.w3.org/2000/svg">
    <path d="M9.35479 6.32769C9.53576 6.53626 9.85155 6.55863 10.0601 6.37765C10.2687 6.19667 10.2911 5.88088 10.1101 5.67231L9.35479 6.32769ZM6.64523 9.67231C6.46425 9.46374 6.14846 9.44137 5.93989 9.62235C5.73132 9.80333 5.70895 10.1191 5.88993 10.3277L6.64523 9.67231ZM8.5 4.66667C8.5 4.39052 8.27614 4.16667 8 4.16667C7.72386 4.16667 7.5 4.39052 7.5 4.66667H8.5ZM7.5 11.3333C7.49999 11.6095 7.72385 11.8333 7.99999 11.8333C8.27613 11.8333 8.49999 11.6095 8.5 11.3333L7.5 11.3333ZM13.5 8C13.5 11.0376 11.0376 13.5 8 13.5V14.5C11.5899 14.5 14.5 11.5899 14.5 8H13.5ZM8 13.5C4.96243 13.5 2.5 11.0376 2.5 8H1.5C1.5 11.5899 4.41015 14.5 8 14.5V13.5ZM2.5 8C2.5 4.96243 4.96243 2.5 8 2.5V1.5C4.41015 1.5 1.5 4.41015 1.5 8H2.5ZM8 2.5C11.0376 2.5 13.5 4.96243 13.5 8H14.5C14.5 4.41015 11.5899 1.5 8 1.5V2.5ZM8 7.5C7.53266 7.5 7.13218 7.37281 6.86314 7.19345C6.5906 7.01176 6.5 6.81567 6.5 6.66667H5.5C5.5 7.25405 5.85712 7.72462 6.30844 8.0255C6.76325 8.32871 7.36277 8.5 8 8.5V7.5ZM6.5 6.66667C6.5 6.51767 6.5906 6.32157 6.86314 6.13988C7.13218 5.96052 7.53266 5.83333 8 5.83333V4.83333C7.36277 4.83333 6.76325 5.00462 6.30844 5.30783C5.85712 5.60871 5.5 6.07929 5.5 6.66667H6.5ZM8 5.83333C8.63696 5.83333 9.12817 6.06652 9.35479 6.32769L10.1101 5.67231C9.64508 5.13641 8.8436 4.83333 8 4.83333V5.83333ZM8 8.5C8.46734 8.5 8.86783 8.62719 9.13687 8.80655C9.40941 8.98824 9.50001 9.18434 9.50001 9.33333H10.5C10.5 8.74595 10.1429 8.27538 9.69157 7.9745C9.23675 7.67129 8.63723 7.5 8 7.5V8.5ZM7.5 4.66667V5.33333H8.5V4.66667H7.5ZM7.50001 10.6667L7.5 11.3333L8.5 11.3333L8.50001 10.6667L7.50001 10.6667ZM8.00002 10.1667C7.36306 10.1667 6.87184 9.93347 6.64523 9.67231L5.88993 10.3277C6.35493 10.8636 7.15642 11.1667 8.00001 11.1667L8.00002 10.1667ZM9.50001 9.33333C9.50001 9.48233 9.40941 9.67843 9.13688 9.86012C8.86784 10.0395 8.46735 10.1667 8.00001 10.1667V11.1667C8.63724 11.1667 9.23676 10.9954 9.69158 10.6922C10.1429 10.3913 10.5 9.92071 10.5 9.33333H9.50001ZM7.5 5.33333L7.50001 10.6667L8.50001 10.6667L8.5 5.33333L7.5 5.33333Z" fill="white"/>
</svg>
