<svg width="192" height="192" viewBox="0 0 192 192" fill="none" xmlns="http://www.w3.org/2000/svg">
    <path d="M192 99.4564C192 49.1417 149.019 8.35352 96 8.35352C42.9807 8.35352 0 49.1417 0 99.4564C0 149.771 42.9807 190.559 96 190.559C149.019 190.559 192 149.771 192 99.4564Z" fill="#414141"/>
    <path d="M124.675 74.6234C124.099 65.9176 123.679 59.575 118.843 55.4822C116.133 53.1887 112.919 52.3496 108.896 52.0795C108.143 52.0267 107.439 51.7052 106.925 51.1797C106.412 50.6543 106.127 49.9638 106.128 49.2471V41.876H93.7349V48.7019C93.7322 49.6416 93.3645 50.5474 92.7021 51.2459C92.0396 51.9444 91.129 52.3865 90.1445 52.4876C85.2653 53.0088 81.1723 54.1913 78.0173 57.0965C76.1558 58.8106 72.6917 62.9002 73.643 85.2314C74.092 95.6005 75.31 105.927 77.2882 116.133L120.53 116.841C121.211 111.443 122.251 103.134 123.506 92.8189C124.533 84.4119 125.04 80.0968 124.675 74.6234Z" fill="white"/>
    <path d="M120.528 117.296H120.52L77.28 116.59C77.1691 116.588 77.0622 116.55 76.9776 116.482C76.8929 116.414 76.8358 116.32 76.8158 116.216C74.8373 105.988 73.6168 95.6411 73.1635 85.251C72.2798 64.51 75.1147 59.1354 77.6832 56.7704C80.58 54.1033 84.4066 52.6425 90.0907 52.0358C90.9579 51.947 91.7601 51.5579 92.3439 50.943C92.9276 50.328 93.252 49.5304 93.2549 48.7028V41.8764C93.2549 41.7556 93.3055 41.6397 93.3955 41.5543C93.4855 41.4689 93.6076 41.4209 93.7349 41.4209H106.128C106.255 41.4209 106.377 41.4689 106.467 41.5543C106.557 41.6397 106.608 41.7556 106.608 41.8764V49.2476C106.608 49.8486 106.847 50.4274 107.278 50.8684C107.708 51.3093 108.298 51.5798 108.93 51.6258C113.556 51.9365 116.616 52.9882 119.162 55.1428C124.145 59.3595 124.568 65.749 125.154 74.5933V74.5965C125.526 80.2193 124.979 84.7135 123.984 92.8731C122.99 101.033 121.987 109.122 121.008 116.896C120.994 117.007 120.937 117.11 120.849 117.183C120.76 117.257 120.646 117.297 120.528 117.296ZM77.688 115.685L120.103 116.379C121.068 108.73 122.052 100.789 123.031 92.7669C124.019 84.6588 124.563 80.1947 124.196 74.652V74.6493C123.625 66.0228 123.212 59.79 118.524 55.8229C116.149 53.8132 113.259 52.8297 108.863 52.5345C107.989 52.472 107.172 52.0987 106.576 51.4892C105.979 50.8798 105.648 50.0792 105.647 49.2476V42.3319H94.213V48.7023C94.2102 49.754 93.799 50.7678 93.058 51.5498C92.3169 52.3318 91.2981 52.8271 90.1963 52.9409C84.7378 53.5239 81.084 54.9064 78.3494 57.424C76.9253 58.7355 73.1414 62.2197 74.1206 85.2136C74.5672 95.4367 75.7598 105.618 77.6899 115.685H77.688Z" fill="#090817"/>
    <path d="M105.641 50.5498C109.517 50.9066 113.392 51.2824 117.264 51.6772C120.624 52.0193 122.36 52.2111 124.189 53.3298C127.168 55.1519 128.193 58.1437 128.725 59.1722C138.626 78.2943 150.661 82.9209 148.49 93.918C148.24 95.6283 147.575 97.2601 146.546 98.684C143.776 102.345 138.565 103.828 120.787 103.911C113.831 103.943 106.875 103.752 99.9317 103.341L98.7946 93.6488L123.947 86.9609C117.844 74.8242 111.743 62.6871 105.641 50.5498Z" fill="#929292"/>
    <path d="M91.5043 48.7289L107.543 48.2314L107.826 50.8734C107.826 50.8734 119.937 52.7114 122.61 58.225C125.284 63.7385 128.239 111.442 128.239 111.442L72.347 109.301C72.347 109.301 69.7651 64.809 72.347 60.4461C74.929 56.0831 84.457 52.7119 90.7752 51.1039L91.5043 48.7289Z" fill="#929292"/>
    <path d="M120.463 26.9219C120.477 26.7492 120.494 26.5775 120.504 26.403C120.607 25.629 120.615 24.8463 120.53 24.0703L120.475 24.0471C120.116 19.1137 117.8 14.4928 113.993 11.116C110.186 7.73917 105.172 5.8576 99.9607 5.85061C94.7497 5.84361 89.7297 7.71172 85.9128 11.0783C82.0959 14.4449 79.7658 19.0596 79.3925 23.992C79.3733 24.0189 79.3522 24.0435 79.3325 24.0703C79.2901 24.9954 79.301 25.9219 79.3651 26.8458C78.6958 26.7646 78.0158 26.8343 77.3803 27.0492C76.7447 27.2642 76.1715 27.6183 75.7071 28.0828C75.2428 28.5474 74.9004 29.1093 74.7078 29.723C74.5152 30.3366 74.4777 30.9847 74.5985 31.6147C74.7193 32.2446 74.9949 32.8387 75.4029 33.3486C75.8109 33.8586 76.3399 34.2701 76.9469 34.5496C77.5539 34.8292 78.2218 34.9691 78.8964 34.9578C79.571 34.9465 80.2334 34.7845 80.8296 34.4848C82.836 40.3691 87.4421 46.647 97.944 47.1317C109.416 47.6587 115.33 41.0902 118.19 34.7713C118.74 34.9366 119.321 34.9947 119.895 34.9423C120.47 34.8899 121.028 34.7279 121.535 34.4661C122.042 34.2043 122.489 33.848 122.848 33.4187C123.206 32.9893 123.47 32.4956 123.623 31.9672C123.776 31.4388 123.815 30.8866 123.738 30.3435C123.661 29.8004 123.469 29.2777 123.174 28.8066C122.879 28.3356 122.487 27.9259 122.021 27.602C121.555 27.2781 121.025 27.0468 120.463 26.9219Z" fill="white"/>
    <path d="M99.2448 47.6179C98.8115 47.6179 98.3702 47.6075 97.921 47.5869C87.2107 47.0954 82.561 40.6417 80.545 35.1085C79.8911 35.3486 79.1896 35.4491 78.4902 35.4027C77.7908 35.3564 77.1107 35.1644 76.4984 34.8405C75.886 34.5165 75.3564 34.0685 74.9471 33.5283C74.5379 32.9881 74.259 32.369 74.1304 31.715C74.0018 31.0609 74.0266 30.388 74.2031 29.7441C74.3795 29.1002 74.7033 28.5011 75.1513 27.9894C75.5993 27.4776 76.1607 27.0658 76.7954 26.7833C77.4301 26.5007 78.1226 26.3543 78.8237 26.3544H78.8602C78.7968 24.9533 78.8525 24.0823 78.8549 24.0413C78.86 23.9669 78.8843 23.8949 78.9254 23.8314C79.3395 18.8134 81.7324 14.1282 85.6264 10.7109C89.5205 7.29359 94.6293 5.39551 99.9331 5.39551C105.237 5.39551 110.346 7.29359 114.24 10.7109C118.134 14.1282 120.527 18.8134 120.941 23.8314C120.973 23.8815 120.995 23.937 121.005 23.9949C121.098 24.81 121.091 25.6325 120.983 26.446C120.983 26.4888 120.978 26.5371 120.974 26.5827C122.133 26.947 123.102 27.7194 123.679 28.7409C124.257 29.7623 124.399 30.955 124.078 32.0734C123.757 33.1917 122.996 34.1505 121.952 34.7523C120.908 35.3542 119.66 35.5532 118.466 35.3085C115.757 41.0739 110.256 47.617 99.2448 47.6179ZM80.832 34.0294C80.9335 34.0294 81.0324 34.0598 81.1145 34.1165C81.1966 34.1731 81.2577 34.253 81.289 34.3446C83.1163 39.7051 87.4934 46.1962 97.9694 46.6768C109.573 47.2097 115.123 40.3984 117.751 34.592C117.798 34.4883 117.884 34.4048 117.992 34.3577C118.1 34.3106 118.222 34.3032 118.336 34.3369C118.825 34.4858 119.341 34.5392 119.853 34.4939C120.365 34.4486 120.862 34.3056 121.314 34.0735C121.766 33.8413 122.164 33.5248 122.483 33.1429C122.803 32.7611 123.038 32.3218 123.175 31.8515C123.311 31.3812 123.346 30.8897 123.277 30.4063C123.207 29.923 123.036 29.4579 122.773 29.039C122.509 28.6202 122.16 28.2562 121.744 27.9689C121.329 27.6816 120.857 27.4771 120.356 27.3675C120.244 27.3426 120.146 27.2809 120.079 27.1934C120.011 27.1059 119.979 26.9983 119.987 26.8901L120.002 26.7138C120.012 26.6032 120.021 26.4934 120.027 26.3822C120.11 25.6932 120.129 24.9985 120.081 24.3065C120.033 24.2389 120.004 24.1603 119.998 24.0787C119.65 19.2584 117.389 14.7426 113.67 11.4425C109.952 8.14228 105.053 6.30327 99.9614 6.29645C94.8701 6.28963 89.9656 8.1155 86.2372 11.4057C82.5088 14.6959 80.2341 19.2056 79.872 24.0249C79.8666 24.0956 79.8439 24.1641 79.8057 24.2249C79.7913 24.5529 79.7635 25.5004 79.8451 26.8213C79.8493 26.8882 79.8379 26.955 79.8117 27.0171C79.7856 27.0793 79.7453 27.1352 79.6938 27.1809C79.6423 27.2266 79.5808 27.261 79.5137 27.2816C79.4466 27.3022 79.3756 27.3085 79.3056 27.3001C79.1455 27.2794 78.9842 27.2684 78.8227 27.2673C77.8188 27.278 76.8597 27.664 76.1538 28.3415C75.4478 29.019 75.0519 29.9333 75.0519 30.8861C75.0519 31.8389 75.4478 32.7533 76.1538 33.4308C76.8597 34.1083 77.8188 34.4943 78.8227 34.505C79.4444 34.5064 80.0569 34.3618 80.6054 34.0841C80.675 34.0484 80.7529 34.0296 80.832 34.0294Z" fill="#090817"/>
    <path d="M112.288 25.1327C112.202 25.1326 112.118 25.1107 112.044 25.0693C110.854 24.3626 109.482 23.979 108.078 23.9605C106.675 23.9419 105.292 24.2891 104.082 24.9641C103.976 25.0303 103.846 25.054 103.722 25.0299C103.598 25.0059 103.489 24.9362 103.418 24.8359C103.348 24.7357 103.322 24.6131 103.347 24.495C103.372 24.377 103.445 24.2729 103.55 24.2057C104.911 23.4353 106.468 23.0352 108.053 23.0492C109.637 23.0632 111.187 23.4907 112.532 24.2849C112.623 24.3358 112.693 24.4134 112.733 24.506C112.772 24.5986 112.779 24.701 112.751 24.7973C112.723 24.8937 112.663 24.9787 112.579 25.0393C112.495 25.0999 112.393 25.1327 112.288 25.1327Z" fill="#080717"/>
    <path d="M106.728 32.5273C107.906 32.5273 108.86 31.6214 108.86 30.5039C108.86 29.3864 107.906 28.4805 106.728 28.4805C105.55 28.4805 104.596 29.3864 104.596 30.5039C104.596 31.6214 105.55 32.5273 106.728 32.5273Z" fill="#080717"/>
    <path d="M85.3858 24.6237C85.2871 24.6237 85.1909 24.5948 85.1102 24.5411C85.0295 24.4873 84.9682 24.4113 84.9346 24.3233C84.9011 24.2353 84.8969 24.1396 84.9226 24.0493C84.9484 23.9589 85.0028 23.8783 85.0786 23.8184C86.172 22.9534 87.5114 22.4156 88.927 22.2733C90.3427 22.131 91.771 22.3905 93.0312 23.019C93.1424 23.0759 93.2255 23.1721 93.2624 23.2868C93.2994 23.4015 93.2872 23.5253 93.2285 23.6315C93.1698 23.7377 93.0693 23.8176 92.9489 23.854C92.8285 23.8903 92.6978 23.8802 92.5853 23.8257C91.4931 23.2807 90.2551 23.0556 89.028 23.179C87.801 23.3023 86.6401 23.7685 85.6925 24.5185C85.6063 24.5865 85.4978 24.6237 85.3858 24.6237Z" fill="#080717"/>
    <path d="M90.0509 32.956C91.2285 32.956 92.1831 32.0501 92.1831 30.9326C92.1831 29.8151 91.2285 28.9092 90.0509 28.9092C88.8733 28.9092 87.9187 29.8151 87.9187 30.9326C87.9187 32.0501 88.8733 32.956 90.0509 32.956Z" fill="#080717"/>
    <path d="M98.2613 35.06C97.4093 35.06 96.4483 34.9329 96.0533 34.4159C95.4571 33.6324 96.5131 30.4005 97.1957 28.5439C97.2164 28.4874 97.2487 28.4353 97.2907 28.3906C97.3327 28.346 97.3835 28.3096 97.4403 28.2836C97.4971 28.2576 97.5587 28.2424 97.6217 28.239C97.6846 28.2356 97.7477 28.244 97.8072 28.2637C97.8667 28.2834 97.9216 28.3141 97.9686 28.3539C98.0157 28.3937 98.054 28.442 98.0815 28.4959C98.1089 28.5497 98.1248 28.6082 98.1284 28.668C98.132 28.7277 98.1232 28.7875 98.1024 28.844C97.3344 30.928 96.6485 33.4579 96.8443 33.9025C97.0243 34.1358 98.2906 34.2214 99.4891 34.0651C99.5524 34.055 99.6173 34.057 99.6797 34.071C99.7422 34.085 99.8011 34.1108 99.8529 34.1468C99.9047 34.1828 99.9484 34.2283 99.9813 34.2806C100.014 34.333 100.036 34.391 100.045 34.4514C100.054 34.5117 100.05 34.5732 100.033 34.632C100.016 34.6909 99.9875 34.746 99.948 34.7941C99.9086 34.8422 99.8593 34.8823 99.8033 34.912C99.7472 34.9417 99.6854 34.9604 99.6216 34.9671C99.1709 35.0268 98.7164 35.0579 98.2613 35.06Z" fill="#080717"/>
    <path d="M110.052 36.4198C111.675 36.3118 112.93 35.4093 112.856 34.404C112.781 33.3986 111.406 32.6712 109.783 32.7791C108.16 32.8871 106.904 33.7896 106.979 34.7949C107.053 35.8003 108.429 36.5277 110.052 36.4198Z" fill="#6556FF"/>
    <path d="M88.486 37.3465C90.1089 37.2386 91.3644 36.336 91.2901 35.3307C91.2158 34.3254 89.84 33.5979 88.2171 33.7059C86.5942 33.8138 85.3387 34.7164 85.413 35.7217C85.4873 36.727 86.8631 37.4545 88.486 37.3465Z" fill="#6556FF"/>
    <path d="M168.131 103.341H23.8685C20.2213 103.341 17.2646 106.147 17.2646 109.608V185.277C17.2646 188.739 20.2213 191.544 23.8685 191.544H168.131C171.778 191.544 174.735 188.739 174.735 185.277V109.608C174.735 106.147 171.778 103.341 168.131 103.341Z" fill="white"/>
    <path d="M168.131 192H23.8685C21.9904 191.998 20.1898 191.289 18.8618 190.029C17.5338 188.769 16.7868 187.06 16.7846 185.278V109.608C16.7867 107.826 17.5337 106.117 18.8617 104.857C20.1897 103.597 21.9903 102.888 23.8685 102.886H168.131C170.009 102.888 171.81 103.597 173.138 104.857C174.466 106.117 175.213 107.826 175.215 109.608V185.278C175.213 187.06 174.466 188.769 173.138 190.029C171.81 191.289 170.009 191.998 168.131 192ZM23.8685 103.797C22.2449 103.798 20.6883 104.411 19.5402 105.501C18.3922 106.59 17.7464 108.067 17.7446 109.608V185.278C17.7465 186.819 18.3923 188.296 19.5404 189.385C20.6884 190.475 22.2449 191.087 23.8685 191.089H168.131C169.755 191.088 171.311 190.475 172.459 189.385C173.607 188.296 174.253 186.819 174.255 185.278V109.608C174.253 108.067 173.607 106.59 172.459 105.501C171.311 104.411 169.755 103.798 168.131 103.797H23.8685Z" fill="#090817"/>
    <path d="M91.3018 51.9666C87.6212 51.8113 83.9419 52.2997 80.4475 53.4074C74.269 55.3944 70.5787 58.828 66.839 62.1706C50.8267 76.4737 49.8634 74.771 47.399 78.5441C37.92 93.0472 53.04 116.836 55.9032 121.208L68.2968 117.748L61.1688 89.921C66.7077 87.2461 72.0162 84.1619 77.0453 80.6968C86.9986 73.829 93.1555 69.4538 94.056 62.632C94.6488 58.1384 92.7403 54.2592 91.3018 51.9666Z" fill="#929292"/>
    <path d="M89.0971 36.7182C87.8286 36.7182 86.5886 36.3612 85.5339 35.6923C84.4792 35.0235 83.6572 34.0729 83.1718 32.9607C82.6865 31.8485 82.5596 30.6247 82.8072 29.444C83.0548 28.2634 83.6658 27.1789 84.5629 26.3278C85.46 25.4768 86.6029 24.8973 87.8471 24.6626C89.0913 24.428 90.3809 24.5488 91.5527 25.0097C92.7246 25.4706 93.726 26.251 94.4305 27.2521C95.135 28.2532 95.5108 29.4301 95.5104 30.6339C95.508 32.2471 94.8315 33.7936 93.6292 34.9342C92.427 36.0748 90.7971 36.7164 89.0971 36.7182ZM89.0971 25.9124C88.1136 25.9124 87.1521 26.1892 86.3343 26.7077C85.5165 27.2262 84.8791 27.9632 84.5026 28.8255C84.1261 29.6878 84.0275 30.6366 84.2193 31.5521C84.411 32.4676 84.8845 33.3085 85.5798 33.9686C86.2751 34.6288 87.1611 35.0784 88.1257 35.2607C89.0903 35.443 90.0902 35.3498 90.999 34.9929C91.9078 34.6359 92.6846 34.0313 93.2313 33.2554C93.778 32.4795 94.07 31.5672 94.0704 30.6339C94.0694 29.3823 93.5452 28.1822 92.6128 27.297C91.6804 26.4118 90.416 25.9139 89.0971 25.9124ZM106.992 36.7182C105.723 36.7183 104.483 36.3615 103.429 35.6928C102.374 35.0241 101.552 34.0735 101.066 32.9613C100.581 31.8491 100.454 30.6253 100.701 29.4446C100.949 28.2639 101.559 27.1793 102.457 26.3282C103.354 25.477 104.496 24.8974 105.741 24.6627C106.985 24.428 108.275 24.5487 109.446 25.0096C110.618 25.4705 111.62 26.2509 112.324 27.252C113.029 28.2531 113.405 29.43 113.404 30.6339C113.402 32.247 112.726 33.7933 111.523 34.9339C110.321 36.0745 108.692 36.7161 106.992 36.7182ZM106.992 25.9124C106.008 25.9123 105.047 26.1889 104.229 26.7073C103.411 27.2257 102.773 27.9626 102.397 28.8249C102.02 29.6871 101.921 30.636 102.113 31.5515C102.305 32.4671 102.778 33.3081 103.473 33.9683C104.169 34.6285 105.055 35.0783 106.019 35.2606C106.984 35.443 107.984 35.3499 108.893 34.993C109.802 34.6361 110.578 34.0314 111.125 33.2555C111.672 32.4796 111.964 31.5673 111.964 30.6339C111.963 29.3824 111.439 28.1825 110.507 27.2973C109.575 26.4122 108.311 25.9141 106.992 25.9124Z" fill="#080717"/>
    <path d="M101.297 31.3177H94.7904C94.5994 31.3177 94.4163 31.2457 94.2813 31.1176C94.1463 30.9895 94.0704 30.8157 94.0704 30.6344C94.0704 30.4532 94.1463 30.2794 94.2813 30.1513C94.4163 30.0232 94.5994 29.9512 94.7904 29.9512H101.297C101.488 29.9512 101.671 30.0232 101.806 30.1513C101.941 30.2794 102.017 30.4532 102.017 30.6344C102.017 30.8157 101.941 30.9895 101.806 31.1176C101.671 31.2457 101.488 31.3177 101.297 31.3177ZM99.5438 41.7126C98.9508 41.7212 98.3637 41.6006 97.8274 41.3602C97.2912 41.1197 96.8202 40.7658 96.4507 40.3255C96.3713 40.2312 96.3345 40.1108 96.3486 39.9908C96.3626 39.8708 96.4263 39.761 96.5256 39.6855C96.6696 39.5744 100.118 36.9943 102.526 38.3413C102.771 38.451 102.975 38.6311 103.107 38.8563C103.239 39.0814 103.293 39.3403 103.261 39.5962C103.152 40.392 102.157 41.1905 100.85 41.5376C100.425 41.6521 99.9856 41.711 99.5438 41.7126ZM97.548 40.1073C97.9656 40.434 98.4629 40.6559 98.9945 40.7526C99.526 40.8492 100.075 40.8175 100.59 40.6603C101.587 40.3961 102.258 39.8404 102.308 39.476C102.315 39.4254 102.334 39.2906 102.036 39.1243C100.608 38.3263 98.4519 39.5238 97.548 40.1091V40.1073Z" fill="#080717"/>
    <path d="M71.8267 84.5487H71.8142C71.7512 84.5472 71.6891 84.5339 71.6315 84.5096C71.5739 84.4852 71.5219 84.4504 71.4784 84.407C71.435 84.3636 71.401 84.3125 71.3784 84.2566C71.3558 84.2007 71.3451 84.1412 71.3467 84.0814L71.8824 64.3421C71.8815 64.2816 71.8938 64.2215 71.9185 64.1657C71.9433 64.1099 71.9799 64.0595 72.0262 64.0179C72.0725 63.9762 72.1273 63.944 72.1874 63.9235C72.2474 63.9029 72.3112 63.8944 72.3749 63.8984C72.5021 63.9017 72.6228 63.9527 72.7104 64.0403C72.798 64.128 72.8453 64.245 72.8419 64.3658L72.3062 84.1051C72.303 84.2237 72.251 84.3365 72.1615 84.4194C72.0719 84.5022 71.9518 84.5486 71.8267 84.5487ZM107.357 93.4495C107.238 93.4502 107.122 93.4086 107.034 93.3328C106.945 93.257 106.889 93.1525 106.877 93.0397C106.865 92.9269 106.898 92.814 106.969 92.7229C107.04 92.6318 107.144 92.5691 107.261 92.5471L132.8 87.6777C132.817 87.6749 132.834 87.6722 132.851 87.6708C133.071 87.6521 138.304 87.229 143.054 88.9185C143.171 88.9626 143.264 89.0483 143.315 89.1572C143.366 89.2661 143.37 89.3895 143.326 89.5011C143.282 89.6126 143.194 89.7034 143.08 89.754C142.966 89.8046 142.836 89.8109 142.718 89.7717C138.338 88.2133 133.354 88.5472 132.963 88.5764L107.452 93.4404C107.421 93.4463 107.389 93.4493 107.357 93.4495Z" fill="white"/>
    <path d="M125.122 90.0641C124.999 90.0643 124.881 90.0199 124.792 89.94C124.703 89.8601 124.649 89.7508 124.642 89.6346L123.106 64.3799C123.102 64.3201 123.111 64.2602 123.132 64.2036C123.153 64.147 123.185 64.0949 123.227 64.0502C123.269 64.0054 123.32 63.969 123.377 63.9429C123.434 63.9168 123.495 63.9017 123.558 63.8982C123.622 63.8948 123.685 63.9032 123.744 63.9229C123.804 63.9426 123.859 63.9732 123.906 64.0131C123.953 64.053 123.992 64.1013 124.019 64.1552C124.046 64.2092 124.062 64.2677 124.066 64.3275L125.602 89.5822C125.606 89.6419 125.597 89.7017 125.576 89.7582C125.555 89.8147 125.523 89.8668 125.481 89.9115C125.439 89.9561 125.388 89.9925 125.332 90.0186C125.275 90.0446 125.213 90.0598 125.15 90.0632L125.122 90.0641ZM61.3258 90.9897C61.2328 90.9898 61.1417 90.9642 61.0638 90.9161C60.9858 90.868 60.9242 90.7994 60.8866 90.7187C59.123 86.9475 54.6797 86.0383 54.635 86.0296C54.5103 86.0054 54.4008 85.9352 54.3305 85.8344C54.2603 85.7336 54.2352 85.6105 54.2606 85.4921C54.2861 85.3737 54.3601 85.2698 54.4663 85.2031C54.5725 85.1365 54.7023 85.1126 54.827 85.1368C55.0291 85.176 59.796 86.1389 61.764 90.3493C61.7965 90.4186 61.8102 90.4945 61.8038 90.5701C61.7975 90.6457 61.7715 90.7187 61.7279 90.7823C61.6844 90.8459 61.6248 90.8982 61.5546 90.9344C61.4843 90.9706 61.4057 90.9896 61.3258 90.9897Z" fill="white"/>
    <path d="M79.2216 33.0453C79.1412 33.0454 79.0621 33.0261 78.9917 32.9893C78.6974 32.8588 78.4401 32.6637 78.2412 32.42C78.0422 32.1763 77.9074 31.8911 77.8478 31.5881C77.7843 31.0533 77.902 30.5132 78.1838 30.0462L76.9013 30.2425C76.7756 30.2617 76.647 30.2326 76.5438 30.1618C76.4407 30.091 76.3714 29.9842 76.3512 29.8649C76.331 29.7456 76.3616 29.6236 76.4362 29.5257C76.5109 29.4278 76.6234 29.362 76.7491 29.3429L79.1458 28.9785C79.2447 28.9633 79.3461 28.9779 79.4359 29.0203C79.5256 29.0626 79.5991 29.1305 79.6461 29.2145C79.6931 29.2985 79.7112 29.3943 79.698 29.4886C79.6847 29.5828 79.6406 29.6708 79.572 29.7401C79.32 29.9975 78.6869 30.8074 78.7963 31.4478C78.8357 31.6123 78.9157 31.7655 79.0297 31.8949C79.1437 32.0243 79.2884 32.1262 79.452 32.1921C79.5455 32.2407 79.6192 32.3174 79.6617 32.4102C79.7041 32.503 79.7128 32.6065 79.6864 32.7045C79.66 32.8024 79.6 32.8893 79.5158 32.9513C79.4317 33.0134 79.3282 33.0471 79.2216 33.0471V33.0453ZM119.306 33.6466C119.201 33.6462 119.098 33.613 119.015 33.552C118.931 33.491 118.871 33.4057 118.844 33.3091C118.817 33.2125 118.824 33.1101 118.864 33.0177C118.904 32.9252 118.975 32.8478 119.066 32.7975C119.277 32.7014 119.463 32.5624 119.612 32.3904C119.76 32.2184 119.867 32.0176 119.924 31.8022C119.976 31.2301 119.807 30.6596 119.448 30.1974C119.396 30.1321 119.364 30.0548 119.354 29.9734C119.344 29.8921 119.358 29.8098 119.394 29.7353C119.429 29.6607 119.485 29.5966 119.556 29.5497C119.626 29.5027 119.709 29.4747 119.795 29.4686L122.027 29.3119C122.09 29.3064 122.153 29.3131 122.214 29.3314C122.274 29.3497 122.33 29.3794 122.378 29.4186C122.426 29.4579 122.465 29.5059 122.493 29.5598C122.521 29.6136 122.537 29.6723 122.541 29.7323C122.55 29.8528 122.509 29.9718 122.426 30.0633C122.342 30.1548 122.225 30.2112 122.098 30.2202L120.619 30.3241C120.877 30.838 120.963 31.4144 120.867 31.9762C120.785 32.3195 120.624 32.6416 120.396 32.9195C120.169 33.1974 119.879 33.4245 119.549 33.5846C119.475 33.6254 119.391 33.6468 119.306 33.6466ZM50.7326 127.168C50.7326 127.168 33.373 157.52 33.6475 158.811C33.9221 160.101 57.0427 156.746 57.4718 157.182C57.901 157.617 58.343 172.441 59.2858 172.942C60.2285 173.444 71.2046 172.187 71.7494 170.331C72.2942 168.476 65.4432 125.412 63.9331 124.37C62.423 123.328 50.7326 127.168 50.7326 127.168ZM55.9214 148.366C55.3301 148.891 47.9674 149.345 47.3054 149.259C46.6435 149.173 53.4691 135.552 53.4691 135.552C53.4691 135.552 56.5128 147.841 55.92 148.366H55.9214ZM154.805 125.351C153.423 124.159 141.363 126.772 141.363 126.772C141.363 126.772 120.634 155.156 120.759 156.468C120.885 157.779 144.252 156.825 144.629 157.302C145.006 157.779 143.75 172.562 144.629 173.159C145.509 173.756 156.564 173.636 157.318 171.847C158.072 170.059 156.187 126.543 154.805 125.351ZM145.655 148.38C145.007 148.841 137.636 148.533 136.988 148.38C136.34 148.226 144.683 135.388 144.683 135.388C144.683 135.388 146.304 147.918 145.655 148.38ZM96 125.729C85.1558 125.729 76.3646 136.419 76.3646 149.606C76.3646 162.792 85.1558 173.484 96 173.484C106.844 173.484 115.635 162.794 115.635 149.608C115.635 136.422 106.844 125.729 96 125.729ZM96.0418 163.218C89.868 163.218 84.863 156.989 84.863 149.304C84.863 141.62 89.868 135.391 96.0418 135.391C102.216 135.391 107.22 141.62 107.22 149.304C107.22 156.989 102.216 163.216 96.0418 163.216V163.218Z" fill="#D93865"/>
    <path d="M55.4126 118.583C55.4126 118.583 50.9117 124.996 49.4827 127.058C48.0538 129.121 46.3368 133.779 47.3496 134.05C48.3624 134.321 50.0779 131.58 50.0779 131.58C50.0779 131.58 48.217 137.572 49.992 137.888C51.767 138.204 52.2662 133.501 52.2662 133.501C52.2662 133.501 53.3376 138.948 54.575 138.726C55.8125 138.504 56.495 133.115 56.495 133.115C56.495 133.115 57.1598 138.606 58.9675 138.177C60.7752 137.748 60.0451 131.317 60.9605 130.261C61.8758 129.205 64.8965 125.666 65.4067 125.804C65.917 125.942 64.6152 131.28 66.6187 130.997C68.6222 130.715 68.1418 126.673 69.6763 124.194C71.2109 121.716 67.5864 115.472 66.3394 114.808C65.0923 114.144 57.3254 114.712 55.4126 118.583Z" fill="white"/>
    <path d="M54.5016 139.188C54.3031 139.186 54.1101 139.126 53.9486 139.016C53.2613 138.57 52.6973 137.073 52.3166 135.744C52.0502 136.671 51.6365 137.633 51.011 138.078C50.8566 138.193 50.6784 138.275 50.4881 138.319C50.2978 138.363 50.0997 138.369 49.907 138.335C49.7372 138.304 49.5764 138.239 49.4355 138.144C49.2947 138.049 49.1772 137.926 49.091 137.784C48.5486 136.943 48.755 135.142 49.0541 133.667C48.4742 134.237 47.8195 134.648 47.2214 134.487C47.0914 134.45 46.9727 134.383 46.8754 134.293C46.7781 134.203 46.7052 134.092 46.6627 133.97C46.1722 132.722 47.8238 128.623 49.0829 126.807C50.4576 124.823 54.6744 118.814 54.995 118.357C55.9838 116.394 58.2518 115.353 59.987 114.826C62.6712 114.009 65.6789 113.932 66.5746 114.41C67.548 114.927 69.4474 117.921 70.1952 120.545C70.6752 122.231 70.6402 123.536 70.091 124.424C69.529 125.488 69.1454 126.629 68.9539 127.806C68.5613 129.569 68.1902 131.234 66.6898 131.446C66.506 131.478 66.3169 131.469 66.1372 131.421C65.9575 131.372 65.7918 131.286 65.653 131.167C64.909 130.526 64.9238 129.091 65.0218 127.282C65.0347 127.036 65.0496 126.76 65.0549 126.528C63.7931 127.732 62.6085 129.007 61.5077 130.346L61.332 130.549C61.0565 130.868 60.948 132.318 60.8582 133.485C60.6792 135.844 60.4944 138.283 59.0822 138.618C58.8989 138.661 58.7077 138.666 58.5222 138.632C58.3366 138.598 58.1613 138.525 58.0085 138.42C57.3202 137.967 56.8454 136.838 56.532 135.737C55.8811 138.603 55.0469 139.104 54.6648 139.172C54.611 139.182 54.5564 139.187 54.5016 139.188ZM52.2662 133.045C52.3783 133.046 52.4868 133.083 52.573 133.151C52.6592 133.219 52.7176 133.313 52.7381 133.418C53.2181 135.861 54.0509 138.133 54.5184 138.279C54.96 138.127 55.6906 135.64 56.016 133.061C56.03 132.95 56.0862 132.848 56.174 132.774C56.2619 132.701 56.3752 132.66 56.4926 132.66C56.6103 132.66 56.7239 132.701 56.8117 132.775C56.8995 132.85 56.9554 132.952 56.9688 133.063C57.1502 134.562 57.7416 137.138 58.5528 137.672C58.5932 137.704 58.6409 137.726 58.6922 137.737C58.7434 137.748 58.7966 137.747 58.8475 137.735C59.5819 137.561 59.7782 134.969 59.8958 133.42C60.0322 131.618 60.1387 130.487 60.5856 129.972L60.7603 129.769C64.4827 125.464 65.0477 125.236 65.5344 125.366C66.073 125.512 66.0422 126.082 65.9755 127.329C65.9237 128.294 65.8267 130.091 66.2938 130.493C66.3275 130.521 66.3681 130.541 66.4117 130.55C66.4554 130.559 66.5008 130.558 66.5438 130.546C67.3843 130.428 67.6742 129.126 68.0098 127.619C68.2213 126.346 68.6425 125.112 69.2578 123.963C69.6662 123.304 69.6677 122.205 69.263 120.784C68.5205 118.178 66.719 115.534 66.0998 115.205C65.5718 114.924 62.8949 114.896 60.275 115.694C58.7141 116.169 56.6784 117.089 55.8446 118.776C55.8347 118.797 55.823 118.816 55.8096 118.835C55.8096 118.835 51.3096 125.247 49.8811 127.307C48.4382 129.389 47.3064 132.928 47.5406 133.613C47.9026 133.567 48.8683 132.614 49.6627 131.346C49.7222 131.25 49.8166 131.178 49.9283 131.143C50.0399 131.109 50.1609 131.115 50.2685 131.159C50.3761 131.204 50.4627 131.284 50.5121 131.385C50.5614 131.486 50.5701 131.601 50.5363 131.708C50.003 133.424 49.3608 136.463 49.9061 137.307C49.9221 137.34 49.946 137.369 49.9758 137.392C50.0056 137.415 50.0405 137.431 50.0779 137.439C50.1404 137.45 50.2047 137.447 50.266 137.432C50.3273 137.416 50.3841 137.387 50.4322 137.348C51.1718 136.823 51.6552 134.681 51.7862 133.455C51.7977 133.345 51.8503 133.244 51.9343 133.169C52.0183 133.093 52.1282 133.049 52.2437 133.045L52.2662 133.045Z" fill="#090817"/>
    <path d="M96.6614 98.6855C96.6614 98.6855 86.7657 99.9336 87.191 100.856C87.6163 101.778 90.7147 103.22 93.084 102.989C94.7135 102.756 96.269 102.185 97.6402 101.317L96.6614 98.6855Z" fill="white"/>
    <path d="M92.5805 103.468C90.2117 103.468 87.2616 102.147 86.7513 101.039C86.7117 100.951 86.694 100.857 86.6998 100.762C86.7055 100.667 86.7345 100.574 86.7845 100.492C87.3537 99.5355 93.1776 98.6672 96.5981 98.2354C96.7073 98.2216 96.8182 98.2439 96.9122 98.2986C97.0062 98.3533 97.0775 98.437 97.1141 98.5356L98.0928 101.167C98.1279 101.261 98.1294 101.364 98.097 101.459C98.0646 101.554 98.0003 101.636 97.9137 101.693C96.4772 102.607 94.8439 103.205 93.1329 103.444C92.9493 103.461 92.7649 103.469 92.5805 103.468ZM87.7641 100.859C88.4165 101.554 90.9533 102.738 93.035 102.536C94.4652 102.337 95.8362 101.857 97.0608 101.128L96.3408 99.1865C92.7105 99.6589 88.704 100.385 87.7641 100.859Z" fill="#090817"/>
    <path d="M99.1718 97.124C99.1718 97.124 92.8896 100.902 91.3666 102.511C89.8435 104.121 88.9296 113.636 89.8435 114.336C90.7574 115.036 92.8896 109.718 92.8896 109.718C92.8896 109.718 92.639 115.735 94.3253 115.945C96.0115 116.155 96.5448 110.349 96.5448 110.349C96.5448 110.349 97.0776 116.028 98.2958 115.952C99.5141 115.877 100.041 109.23 100.041 109.23C100.041 109.23 101.038 114.827 102.105 114.337C103.173 113.848 102.866 107.487 103.856 106.539C104.846 105.591 110.025 104.962 111.852 103.772C113.679 102.583 113.984 99.7842 113.984 99.7842L107.36 92.9971L99.1718 97.124Z" fill="white"/>
    <path d="M98.2742 116.408C97.416 116.408 96.8635 115.101 96.5079 113.443C96.2237 114.563 95.8013 115.667 95.1912 116.13C95.0643 116.233 94.9162 116.31 94.7564 116.356C94.5966 116.401 94.4286 116.415 94.2629 116.396C92.9294 116.23 92.5234 113.907 92.4202 111.957C91.7674 113.287 90.9451 114.645 90.24 114.827C90.1207 114.859 89.9949 114.864 89.8733 114.84C89.7518 114.816 89.6381 114.765 89.5421 114.69C89.2598 114.474 89.1101 114.029 89.0395 113.202C88.8115 110.508 89.58 103.717 91.0075 102.207C92.557 100.57 98.6539 96.8945 98.9126 96.7405C98.923 96.7342 98.9338 96.7284 98.9448 96.7232L107.131 92.5953C107.224 92.5483 107.331 92.5317 107.435 92.5482C107.539 92.5647 107.635 92.6132 107.707 92.6864L114.331 99.4736C114.377 99.5211 114.412 99.5774 114.434 99.6388C114.456 99.7002 114.463 99.7654 114.456 99.8298C114.443 99.9528 114.106 102.853 112.118 104.147C111.129 104.791 109.343 105.251 107.616 105.696C106.198 106.06 104.592 106.475 104.192 106.858C103.833 107.201 103.64 109.097 103.499 110.482C103.246 112.972 103.067 114.399 102.309 114.746C102.197 114.798 102.074 114.824 101.95 114.822C101.825 114.819 101.703 114.789 101.594 114.733C101.026 114.455 100.555 113.321 100.202 112.103C99.8582 114.385 99.2842 116.345 98.3242 116.405C98.3098 116.408 98.2915 116.408 98.2742 116.408ZM92.8896 109.263C92.9219 109.263 92.954 109.266 92.9856 109.272C93.0972 109.294 93.1972 109.352 93.2675 109.437C93.3379 109.522 93.3741 109.628 93.3696 109.736C93.2328 113.037 93.7968 115.42 94.3882 115.494C94.416 115.497 94.4798 115.505 94.5902 115.421C95.3784 114.82 95.9146 111.966 96.0672 110.308C96.0777 110.195 96.1328 110.089 96.2217 110.012C96.3106 109.935 96.4268 109.892 96.5472 109.893C96.6674 109.892 96.7835 109.935 96.8724 110.011C96.9612 110.088 97.0165 110.194 97.0272 110.308C97.2586 112.772 97.8274 115.12 98.267 115.473C98.7408 115.038 99.3259 112.234 99.5669 109.194C99.5758 109.083 99.6272 108.979 99.7113 108.902C99.7954 108.825 99.9064 108.779 100.023 108.774C100.141 108.769 100.256 108.805 100.347 108.874C100.438 108.944 100.499 109.043 100.519 109.153C100.911 111.356 101.546 113.407 101.959 113.854C102.247 113.405 102.435 111.538 102.552 110.392C102.78 108.151 102.959 106.751 103.518 106.215C104.1 105.659 105.616 105.268 107.372 104.815C108.945 104.41 110.729 103.95 111.584 103.393C112.944 102.508 113.375 100.559 113.48 99.9314L107.261 93.5601L99.4176 97.5153C99.0725 97.7235 93.1541 101.307 91.728 102.813C91.152 103.42 90.5386 105.751 90.1958 108.615C89.8675 111.358 89.9333 113.293 90.1157 113.868C90.6163 113.45 91.6277 111.59 92.4451 109.553C92.48 109.468 92.541 109.395 92.6202 109.343C92.6995 109.291 92.7934 109.263 92.8896 109.263Z" fill="#090817"/>
    <path d="M99.1718 97.124C99.1718 97.124 92.8896 100.902 91.3666 102.511C89.8435 104.121 88.9296 113.636 89.8435 114.336C90.7574 115.036 92.8896 109.718 92.8896 109.718C92.8896 109.718 92.639 115.735 94.3253 115.945C96.0115 116.155 96.5448 110.349 96.5448 110.349C96.5448 110.349 97.0776 116.028 98.2958 115.952C99.5141 115.877 100.041 109.23 100.041 109.23C100.041 109.23 101.038 114.827 102.105 114.337C103.173 113.848 102.866 107.487 103.856 106.539C104.846 105.591 110.025 104.962 111.852 103.772C113.679 102.583 113.984 99.7842 113.984 99.7842L107.36 92.9971L99.1718 97.124Z" fill="white"/>
    <path d="M98.2742 116.408C97.416 116.408 96.8635 115.101 96.5079 113.443C96.2237 114.563 95.8013 115.667 95.1912 116.13C95.0643 116.233 94.9162 116.31 94.7564 116.356C94.5966 116.401 94.4286 116.415 94.2629 116.396C92.9294 116.23 92.5234 113.907 92.4202 111.957C91.7674 113.287 90.9451 114.645 90.24 114.827C90.1207 114.859 89.9949 114.864 89.8733 114.84C89.7518 114.816 89.6381 114.765 89.5421 114.69C89.2598 114.474 89.1101 114.029 89.0395 113.202C88.8115 110.508 89.58 103.717 91.0075 102.207C92.557 100.57 98.6539 96.8945 98.9126 96.7405C98.923 96.7342 98.9338 96.7284 98.9448 96.7232L107.131 92.5953C107.224 92.5483 107.331 92.5317 107.435 92.5482C107.539 92.5647 107.635 92.6132 107.707 92.6864L114.331 99.4736C114.377 99.5211 114.412 99.5774 114.434 99.6388C114.456 99.7002 114.463 99.7654 114.456 99.8298C114.443 99.9528 114.106 102.853 112.118 104.147C111.129 104.791 109.343 105.251 107.616 105.696C106.198 106.06 104.592 106.475 104.192 106.858C103.833 107.201 103.64 109.097 103.499 110.482C103.246 112.972 103.067 114.399 102.309 114.746C102.197 114.798 102.074 114.824 101.95 114.822C101.825 114.819 101.703 114.789 101.594 114.733C101.026 114.455 100.555 113.321 100.202 112.103C99.8582 114.385 99.2842 116.345 98.3242 116.405C98.3098 116.408 98.2915 116.408 98.2742 116.408ZM92.8896 109.263C92.9219 109.263 92.954 109.266 92.9856 109.272C93.0972 109.294 93.1972 109.352 93.2675 109.437C93.3379 109.522 93.3741 109.628 93.3696 109.736C93.2328 113.037 93.7968 115.42 94.3882 115.494C94.416 115.497 94.4798 115.505 94.5902 115.421C95.3784 114.82 95.9146 111.966 96.0672 110.308C96.0777 110.195 96.1328 110.089 96.2217 110.012C96.3106 109.935 96.4268 109.892 96.5472 109.893C96.6674 109.892 96.7835 109.935 96.8724 110.011C96.9612 110.088 97.0165 110.194 97.0272 110.308C97.2586 112.772 97.8274 115.12 98.267 115.473C98.7408 115.038 99.3259 112.234 99.5669 109.194C99.5758 109.083 99.6272 108.979 99.7113 108.902C99.7954 108.825 99.9064 108.779 100.023 108.774C100.141 108.769 100.256 108.805 100.347 108.874C100.438 108.944 100.499 109.043 100.519 109.153C100.911 111.356 101.546 113.407 101.959 113.854C102.247 113.405 102.435 111.538 102.552 110.392C102.78 108.151 102.959 106.751 103.518 106.215C104.1 105.659 105.616 105.268 107.372 104.815C108.945 104.41 110.729 103.95 111.584 103.393C112.944 102.508 113.375 100.559 113.48 99.9314L107.261 93.5601L99.4176 97.5153C99.0725 97.7235 93.1541 101.307 91.728 102.813C91.152 103.42 90.5386 105.751 90.1958 108.615C89.8675 111.358 89.9333 113.293 90.1157 113.868C90.6163 113.45 91.6277 111.59 92.4451 109.553C92.48 109.468 92.541 109.395 92.6202 109.343C92.6995 109.291 92.7934 109.263 92.8896 109.263Z" fill="#090817"/>
    <path d="M77.2349 27.0983C77.2349 27.0983 78.4598 26.7421 79.0843 27.5083C79.7088 28.2744 80.0208 29.5822 81.3984 29.1117C82.776 28.6411 81.1358 17.1904 87.7138 12.2754C87.7138 12.2754 86.8018 17.1904 91.979 14.5757C97.1563 11.9611 103.499 9.33186 108.045 9.66074C108.045 9.66074 115.449 15.9013 116.496 19.422C117.542 22.9426 116.826 28.3801 118.699 28.6935C120.573 29.0069 120.697 27.4103 121.599 27.3461C122.501 27.2819 122.991 28.5477 122.991 28.5477C122.991 28.5477 124.047 22.5582 123.77 20.0487C123.77 20.0487 124.961 21.3752 125.769 19.422C126.577 17.4687 120.994 9.17289 118.129 8.47595C118.129 8.47595 121.508 9.52363 121.435 7.77855C121.361 6.03348 114.676 3.17786 111.811 3.66526C111.811 3.66526 105.859 -0.448037 102.849 0.0402749C99.8381 0.528586 101.541 2.13154 101.541 2.13154C101.541 2.13154 91.8974 1.5043 87.7128 3.17922C83.5282 4.85415 85.4256 7.08344 85.4256 7.08344C85.4256 7.08344 78.6058 10.2206 76.549 12.6603C74.4922 15.1 77.5037 15.6585 77.5037 15.6585C77.5037 15.6585 76.1568 21.5287 77.2349 27.0983Z" fill="#080717"/>
    <path d="M80.9573 17.1237C80.8618 17.1239 80.7684 17.0967 80.6894 17.0458C80.5839 16.9783 80.511 16.8737 80.4867 16.7551C80.4624 16.6366 80.4887 16.5137 80.5598 16.4135C80.7038 16.2122 84.107 11.4689 88.489 9.76303C88.5669 9.73271 88.6519 9.72241 88.7355 9.73316C88.819 9.74391 88.898 9.77534 88.9647 9.82427C89.0313 9.87321 89.0832 9.93794 89.1151 10.0119C89.1471 10.086 89.1579 10.1666 89.1466 10.2459C89.087 10.6663 89.0477 11.949 89.6294 12.3198C90.0984 12.6182 90.9451 12.2743 91.573 11.9331C91.6276 11.9032 91.688 11.8838 91.7506 11.876C91.8132 11.8682 91.8767 11.8722 91.9377 11.8878C91.9986 11.9033 92.0558 11.9301 92.1058 11.9666C92.1559 12.0031 92.1978 12.0486 92.2294 12.1005C92.2609 12.1524 92.2813 12.2097 92.2895 12.2691C92.2977 12.3284 92.2935 12.3888 92.2771 12.4466C92.2607 12.5045 92.2325 12.5587 92.194 12.6062C92.1556 12.6537 92.1076 12.6935 92.053 12.7234C90.7944 13.4067 89.7994 13.526 89.0942 13.0751C88.3426 12.5936 88.1722 11.6138 88.1554 10.9105C84.372 12.7271 81.3874 16.8777 81.3581 16.9233C81.3138 16.9854 81.2541 17.0362 81.1842 17.0712C81.1142 17.1061 81.0363 17.1242 80.9573 17.1237ZM121.186 16.7329H121.111C119.997 16.6777 118.391 15.3185 117.367 14.3323C117.348 14.7006 117.22 15.0564 116.998 15.3586C116.898 15.4803 116.772 15.5799 116.627 15.6502C116.483 15.7205 116.324 15.7598 116.162 15.7653H116.126C114.885 15.7653 112.526 12.8045 111.559 11.5218C111.485 11.4234 111.455 11.3011 111.477 11.1819C111.498 11.0627 111.568 10.9563 111.671 10.8861C111.775 10.8159 111.904 10.7877 112.029 10.8076C112.155 10.8276 112.267 10.8941 112.341 10.9925C113.897 13.0628 115.627 14.8311 116.118 14.8543C116.143 14.8547 116.168 14.8491 116.19 14.8383C116.212 14.8274 116.231 14.8115 116.245 14.7919C116.476 14.515 116.447 13.6759 116.354 13.1976C116.335 13.0995 116.351 12.9983 116.398 12.9093C116.446 12.8204 116.523 12.7488 116.618 12.7054C116.712 12.662 116.819 12.6492 116.922 12.6691C117.025 12.689 117.118 12.7404 117.188 12.8154C118.24 13.9542 120.249 15.7795 121.162 15.8246C121.28 15.8309 121.306 15.8004 121.321 15.7881C121.371 15.7466 121.41 15.6951 121.436 15.6374C121.461 15.5797 121.473 15.5173 121.47 15.4547C121.47 14.755 120.421 13.6695 120.053 13.3447C119.96 13.2623 119.905 13.1482 119.9 13.0274C119.896 12.9066 119.942 12.7891 120.029 12.7006C120.116 12.6122 120.236 12.5601 120.363 12.5559C120.49 12.5516 120.614 12.5955 120.708 12.6779C120.884 12.8337 122.431 14.2366 122.43 15.4565C122.433 15.6447 122.394 15.8312 122.315 16.0039C122.236 16.1767 122.12 16.3316 121.974 16.4586C121.758 16.6424 121.476 16.7406 121.186 16.7329ZM90.0509 5.20242C89.935 5.2028 89.823 5.16342 89.7353 5.09153C89.6477 5.01965 89.5904 4.92012 89.574 4.81129C89.5577 4.70247 89.5833 4.5917 89.6462 4.49941C89.7092 4.40713 89.8052 4.33955 89.9165 4.30915C90.0974 4.2595 94.3805 3.08701 97.9858 3.35257C98.1127 3.36194 98.2305 3.41876 98.3132 3.51055C98.396 3.60234 98.437 3.72157 98.4271 3.84202C98.4172 3.96247 98.3574 4.07427 98.2606 4.15281C98.1639 4.23136 98.0383 4.27023 97.9114 4.26087C94.4822 4.00851 90.2285 5.1719 90.1834 5.18511C90.1403 5.19684 90.0957 5.20266 90.0509 5.20242ZM119.305 24.5513C119.178 24.5513 119.056 24.5033 118.966 24.4179C118.876 24.3325 118.825 24.2166 118.825 24.0958C118.756 22.2636 118.466 20.445 117.961 18.6752C117.944 18.6176 117.94 18.5573 117.947 18.4979C117.955 18.4385 117.974 18.3811 118.005 18.329C118.036 18.2768 118.077 18.2309 118.127 18.194C118.177 18.157 118.233 18.1297 118.294 18.1135C118.355 18.0974 118.418 18.0927 118.481 18.0998C118.543 18.107 118.604 18.1257 118.659 18.155C118.714 18.1844 118.762 18.2236 118.801 18.2707C118.84 18.3177 118.869 18.3716 118.886 18.4292C119.418 20.2789 119.719 22.1813 119.785 24.0976C119.785 24.2181 119.734 24.3335 119.644 24.4185C119.554 24.5036 119.432 24.5513 119.305 24.5513Z" fill="white"/>
    <path d="M49.9113 132.615C49.8564 132.615 49.8019 132.606 49.7501 132.589C49.6906 132.569 49.636 132.538 49.5892 132.498C49.5424 132.457 49.5044 132.409 49.4773 132.355C49.4503 132.301 49.4348 132.242 49.4317 132.182C49.4286 132.122 49.4379 132.063 49.4592 132.006C49.5163 131.855 50.8858 128.259 53.1322 125.985C53.2192 125.897 53.3396 125.845 53.4669 125.841C53.5941 125.837 53.7178 125.881 53.8106 125.964C53.9035 126.047 53.958 126.161 53.9621 126.282C53.9662 126.403 53.9195 126.52 53.8325 126.608C51.7205 128.745 50.3765 132.278 50.3635 132.313C50.3302 132.401 50.2689 132.478 50.188 132.532C50.107 132.586 50.0104 132.615 49.9113 132.615ZM52.8643 136.351C52.7617 136.351 52.6617 136.32 52.5792 136.262C52.4967 136.204 52.436 136.122 52.4059 136.029C51.9294 134.364 51.9294 132.608 52.4059 130.943C52.8425 129.455 53.6358 128.083 54.7238 126.935C54.8144 126.852 54.9356 126.806 55.0615 126.807C55.1873 126.808 55.3077 126.856 55.3967 126.94C55.4857 127.025 55.5362 127.139 55.5373 127.258C55.5384 127.378 55.49 127.493 55.4025 127.579C54.4331 128.624 53.7236 129.862 53.3266 131.202C52.9103 132.697 52.9103 134.269 53.3266 135.764C53.3637 135.88 53.3509 136.005 53.291 136.111C53.2311 136.218 53.1291 136.298 53.0074 136.333C52.9609 136.345 52.9127 136.352 52.8643 136.351ZM56.4917 133.571C56.3755 133.571 56.2633 133.531 56.176 133.458C56.0887 133.385 56.0322 133.285 56.0169 133.176C55.9958 133.024 55.5158 129.438 56.795 127.341C56.8607 127.24 56.9651 127.168 57.0861 127.139C57.2071 127.11 57.3353 127.127 57.4433 127.186C57.5514 127.245 57.6309 127.342 57.665 127.456C57.6991 127.57 57.6851 127.692 57.6259 127.796C56.5085 129.628 56.9635 133.021 56.9683 133.055C56.9773 133.12 56.9716 133.185 56.9518 133.247C56.9319 133.309 56.8983 133.367 56.8531 133.416C56.808 133.464 56.7524 133.503 56.6901 133.53C56.6277 133.557 56.5601 133.571 56.4917 133.571V133.571ZM92.4096 111.293C92.3749 111.293 92.3403 111.289 92.3064 111.282C92.2448 111.269 92.1865 111.245 92.1347 111.211C92.083 111.177 92.0389 111.133 92.0048 111.083C91.9708 111.033 91.9476 110.976 91.9365 110.917C91.9254 110.859 91.9267 110.798 91.9402 110.74C92.064 110.202 93.1685 105.458 93.7641 104.578C94.4505 103.73 95.2211 102.946 96.0653 102.237C96.1599 102.156 96.2845 102.114 96.4117 102.121C96.5388 102.127 96.6581 102.181 96.7433 102.271C96.8284 102.361 96.8725 102.479 96.8658 102.6C96.8591 102.72 96.8022 102.834 96.7075 102.914C95.9284 103.57 95.2138 104.291 94.5725 105.07C94.1947 105.629 93.3331 108.964 92.8795 110.935C92.856 111.036 92.7966 111.127 92.7111 111.192C92.6256 111.257 92.5192 111.293 92.4096 111.293ZM96.672 111.898C96.5532 111.898 96.4386 111.856 96.3506 111.78C96.2626 111.704 96.2072 111.6 96.1954 111.488C96.1786 111.338 95.7912 107.79 95.9045 106.66C96.024 105.472 97.6805 103.282 97.8677 103.036C97.9041 102.987 97.9506 102.944 98.0046 102.911C98.0586 102.879 98.1189 102.857 98.182 102.846C98.2451 102.836 98.3097 102.838 98.372 102.852C98.4343 102.866 98.4931 102.891 98.5449 102.927C98.5967 102.963 98.6404 103.008 98.6735 103.06C98.7066 103.112 98.7283 103.17 98.7376 103.23C98.7468 103.29 98.7432 103.351 98.7271 103.41C98.7111 103.469 98.6827 103.524 98.6438 103.572C97.992 104.423 96.9312 106.037 96.8601 106.746C96.756 107.787 97.1482 111.358 97.1482 111.392C97.1548 111.451 97.149 111.512 97.1312 111.569C97.1133 111.626 97.0837 111.68 97.044 111.727C97.0043 111.773 96.9554 111.812 96.8999 111.84C96.8445 111.869 96.7837 111.887 96.721 111.893C96.708 111.898 96.6907 111.898 96.672 111.898ZM100.076 110.82C99.9546 110.82 99.8378 110.777 99.7488 110.699C99.6598 110.621 99.6051 110.514 99.5957 110.4C99.5865 110.289 99.3725 107.658 99.6048 106.612C99.8347 105.575 101.166 103.447 101.317 103.208C101.383 103.105 101.489 103.03 101.613 103.001C101.736 102.971 101.867 102.99 101.976 103.052C102.085 103.114 102.164 103.215 102.195 103.332C102.226 103.449 102.206 103.573 102.141 103.677C101.753 104.29 100.711 106.046 100.544 106.8C100.432 107.974 100.435 109.155 100.553 110.329C100.558 110.388 100.55 110.448 100.531 110.505C100.511 110.562 100.48 110.615 100.439 110.66C100.398 110.706 100.348 110.743 100.292 110.77C100.236 110.797 100.175 110.814 100.112 110.818C100.1 110.819 100.088 110.82 100.076 110.82Z" fill="#080717"/>
    <path d="M27.5496 117.136C30.3896 117.136 32.6918 114.951 32.6918 112.256C32.6918 109.561 30.3896 107.376 27.5496 107.376C24.7096 107.376 22.4073 109.561 22.4073 112.256C22.4073 114.951 24.7096 117.136 27.5496 117.136Z" fill="#080717"/>
    <path d="M31.3699 112.712H23.5829C23.4556 112.712 23.3335 112.664 23.2435 112.578C23.1534 112.493 23.1029 112.377 23.1029 112.256C23.1029 112.135 23.1534 112.02 23.2435 111.934C23.3335 111.849 23.4556 111.801 23.5829 111.801H31.3699C31.4972 111.801 31.6193 111.849 31.7093 111.934C31.7993 112.02 31.8499 112.135 31.8499 112.256C31.8499 112.377 31.7993 112.493 31.7093 112.578C31.6193 112.664 31.4972 112.712 31.3699 112.712Z" fill="white"/>
    <path d="M27.5496 187.298C30.3896 187.298 32.6918 185.113 32.6918 182.418C32.6918 179.723 30.3896 177.538 27.5496 177.538C24.7096 177.538 22.4073 179.723 22.4073 182.418C22.4073 185.113 24.7096 187.298 27.5496 187.298Z" fill="#080717"/>
    <path d="M30.251 185.437C30.188 185.437 30.1255 185.425 30.0673 185.402C30.009 185.379 29.9561 185.346 29.9117 185.303L24.4051 180.078C24.3593 180.036 24.3227 179.986 24.2975 179.93C24.2724 179.875 24.2591 179.815 24.2586 179.754C24.258 179.694 24.2702 179.634 24.2943 179.578C24.3185 179.522 24.3541 179.471 24.3992 179.428C24.4442 179.386 24.4978 179.352 24.5568 179.329C24.6158 179.306 24.679 179.294 24.7427 179.295C24.8065 179.295 24.8695 179.308 24.928 179.332C24.9866 179.356 25.0396 179.39 25.0838 179.434L30.5904 184.659C30.6575 184.723 30.7032 184.804 30.7217 184.892C30.7402 184.981 30.7307 185.072 30.6944 185.156C30.6581 185.239 30.5966 185.31 30.5177 185.36C30.4387 185.41 30.346 185.437 30.251 185.437Z" fill="white"/>
    <path d="M164.339 187.298C167.179 187.298 169.481 185.113 169.481 182.418C169.481 179.723 167.179 177.538 164.339 177.538C161.499 177.538 159.196 179.723 159.196 182.418C159.196 185.113 161.499 187.298 164.339 187.298Z" fill="#080717"/>
    <path d="M168.306 182.873H160.518C160.391 182.873 160.269 182.825 160.179 182.74C160.089 182.654 160.038 182.538 160.038 182.417C160.038 182.297 160.089 182.181 160.179 182.095C160.269 182.01 160.391 181.962 160.518 181.962H168.306C168.433 181.962 168.555 182.01 168.645 182.095C168.735 182.181 168.786 182.297 168.786 182.417C168.786 182.538 168.735 182.654 168.645 182.74C168.555 182.825 168.433 182.873 168.306 182.873Z" fill="white"/>
    <path d="M164.339 117.136C167.179 117.136 169.481 114.951 169.481 112.256C169.481 109.561 167.179 107.376 164.339 107.376C161.499 107.376 159.196 109.561 159.196 112.256C159.196 114.951 161.499 117.136 164.339 117.136Z" fill="#080717"/>
    <path d="M167.144 115.374C167.016 115.374 166.894 115.326 166.804 115.24L161.298 110.015C161.21 109.929 161.162 109.814 161.163 109.695C161.164 109.575 161.215 109.461 161.304 109.377C161.393 109.292 161.513 109.244 161.639 109.243C161.765 109.242 161.886 109.288 161.976 109.371L167.483 114.596C167.55 114.66 167.596 114.741 167.614 114.829C167.633 114.918 167.623 115.009 167.587 115.093C167.551 115.176 167.489 115.247 167.41 115.297C167.331 115.347 167.239 115.374 167.144 115.374Z" fill="white"/>
</svg>
