<svg width="20" height="20" viewBox="0 0 20 20" fill="none" xmlns="http://www.w3.org/2000/svg">
    <path d="M5.83329 8.3335C4.91282 8.3335 4.16663 9.07969 4.16663 10.0002C4.16663 10.9206 4.91282 11.6668 5.83329 11.6668C6.75377 11.6668 7.49996 10.9206 7.49996 10.0002C7.49996 9.07969 6.75377 8.3335 5.83329 8.3335Z" fill="#414141"/>
    <path fill-rule="evenodd" clip-rule="evenodd" d="M5.83329 5.2085C3.18693 5.2085 1.04163 7.3538 1.04163 10.0002C1.04163 12.6465 3.18693 14.7918 5.83329 14.7918C7.65044 14.7918 9.23016 13.7804 10.0423 12.2918H12.7083V14.1668C12.7083 14.512 12.9881 14.7918 13.3333 14.7918H16.25C16.5951 14.7918 16.875 14.512 16.875 14.1668V12.2918H18.3333C18.6785 12.2918 18.9583 12.012 18.9583 11.6668V9.16683C18.9583 8.36141 18.3054 7.7085 17.5 7.7085H10.0423C9.23016 6.21992 7.65044 5.2085 5.83329 5.2085ZM2.29163 10.0002C2.29163 8.04415 3.87728 6.4585 5.83329 6.4585C7.28463 6.4585 8.53345 7.33157 9.08054 8.58373C9.18 8.81137 9.40483 8.9585 9.65326 8.9585H17.5C17.615 8.9585 17.7083 9.05177 17.7083 9.16683V11.0418H16.25C15.9048 11.0418 15.625 11.3217 15.625 11.6668V13.5418H13.9583V11.6668C13.9583 11.3217 13.6785 11.0418 13.3333 11.0418H9.65326C9.40483 11.0418 9.18 11.189 9.08054 11.4166C8.53345 12.6688 7.28463 13.5418 5.83329 13.5418C3.87728 13.5418 2.29163 11.9562 2.29163 10.0002Z" fill="#414141"/>
</svg>
