<svg width="24" height="24" viewBox="0 0 24 24" fill="none" xmlns="http://www.w3.org/2000/svg">
    <path d="M10.5 16.0001C10.5 15.1717 11.1716 14.5001 12 14.5001C12.8284 14.5001 13.5 15.1717 13.5 16.0001C13.5 16.8285 12.8284 17.5001 12 17.5001C11.1716 17.5001 10.5 16.8285 10.5 16.0001Z" fill="#111111"/>
    <path fill-rule="evenodd" clip-rule="evenodd" d="M7.62165 10.5973L7.30621 7.75828C7.26577 7.3943 7.26577 7.02696 7.30621 6.66298L7.32898 6.45809C7.57046 4.2847 9.27907 2.56504 11.4509 2.30953C11.8157 2.26661 12.1843 2.26661 12.5491 2.30953C14.7209 2.56504 16.4295 4.2847 16.671 6.45809L16.6937 6.66298C16.7342 7.02696 16.7342 7.3943 16.6937 7.75828L16.3783 10.5972L17.0649 10.6521C18.1476 10.7385 19.0317 11.5524 19.2073 12.6243C19.5733 14.8599 19.5733 17.1403 19.2073 19.3759C19.0317 20.4478 18.1476 21.2617 17.0649 21.3482L15.5688 21.4676C13.1934 21.6572 10.8067 21.6572 8.43128 21.4676L6.93515 21.3482C5.85242 21.2617 4.96832 20.4478 4.7928 19.3759C4.42673 17.1403 4.42673 14.8599 4.7928 12.6243C4.96832 11.5524 5.85242 10.7385 6.93515 10.6521L7.62165 10.5973ZM11.6261 3.79926C11.8745 3.77004 12.1255 3.77004 12.3738 3.79926C13.8525 3.97322 15.0157 5.14402 15.1802 6.62373L15.2029 6.82863C15.2311 7.08252 15.2311 7.33874 15.2029 7.59263L14.8818 10.4831C12.9626 10.3595 11.0374 10.3595 9.1182 10.4831L8.79704 7.59263C8.76883 7.33875 8.76883 7.08252 8.79704 6.82863L8.8198 6.62373C8.98422 5.14402 10.1475 3.97322 11.6261 3.79926ZM15.4494 12.0279C13.1535 11.8446 10.8466 11.8446 8.55065 12.0279L7.05452 12.1473C6.65959 12.1788 6.33711 12.4757 6.27309 12.8667C5.9333 14.9418 5.9333 17.0584 6.27309 19.1335C6.33711 19.5245 6.65959 19.8214 7.05452 19.8529L8.55065 19.9723C10.8466 20.1556 13.1535 20.1556 15.4494 19.9723L16.9455 19.8529C17.3405 19.8214 17.6629 19.5245 17.727 19.1335C18.0668 17.0584 18.0668 14.9418 17.727 12.8667C17.6629 12.4757 17.3405 12.1788 16.9455 12.1473L15.4494 12.0279Z" fill="#111111"/>
</svg>
