<svg width="19" height="18" viewBox="0 0 19 18" fill="none" xmlns="http://www.w3.org/2000/svg">
    <path fill-rule="evenodd" clip-rule="evenodd" d="M4.75 3.63104V2.46126C4.75 1.59501 5.38374 0.859119 6.2404 0.73062L7.46032 0.547633C8.81254 0.3448 10.1875 0.344799 11.5397 0.547633L12.7596 0.73062C13.6163 0.859119 14.25 1.59501 14.25 2.46126V3.63104L15.964 3.76939C17.2764 3.87533 18.347 4.86347 18.5574 6.16319C19.0226 9.03572 19.0226 11.9644 18.5574 14.8369C18.347 16.1367 17.2764 17.1248 15.964 17.2307L14.0921 17.3818C11.0357 17.6285 7.96432 17.6285 4.90787 17.3818L3.03595 17.2307C1.72357 17.1248 0.65303 16.1367 0.442549 14.8369C-0.0226385 11.9644 -0.0226385 9.03572 0.442549 6.16319C0.653031 4.86347 1.72357 3.87533 3.03596 3.76939L4.75 3.63104ZM7.68283 2.03104C8.88754 1.85033 10.1125 1.85033 11.3172 2.03104L12.5371 2.21402C12.6595 2.23238 12.75 2.33751 12.75 2.46126V3.52586C10.5851 3.40239 8.41491 3.40239 6.25 3.52586V2.46126C6.25 2.33751 6.34053 2.23238 6.46291 2.21402L7.68283 2.03104ZM5.02856 5.11343C8.00468 4.8732 10.9953 4.8732 13.9714 5.11343L15.8433 5.26453C16.4675 5.31491 16.9766 5.78485 17.0767 6.40298C17.1391 6.78791 17.1926 7.1739 17.2372 7.56066C12.3596 9.96246 6.64038 9.96246 1.76278 7.56067C1.80743 7.17391 1.86092 6.78791 1.92326 6.40298C2.02336 5.78485 2.53249 5.31491 3.15664 5.26453L5.02856 5.11343ZM1.62889 9.15672C6.62829 11.4304 12.3717 11.4304 17.3711 9.15672C17.4664 10.9729 17.3683 12.7967 17.0767 14.5971C16.9766 15.2153 16.4675 15.6852 15.8433 15.7356L13.9714 15.8867C10.9953 16.1269 8.00468 16.1269 5.02856 15.8867L3.15664 15.7356C2.53249 15.6852 2.02336 15.2153 1.92326 14.5971C1.63169 12.7967 1.53356 10.9729 1.62889 9.15672Z" fill="white"/>
</svg>
