<svg width="20" height="20" viewBox="0 0 20 20" fill="none" xmlns="http://www.w3.org/2000/svg">
    <g clip-path="url(#clip0_560_5573)">
        <path d="M19.0926 2.68838C19.0926 1.52956 18.1515 0.588379 16.9926 0.588379H3.00441C1.84853 0.588379 0.907349 1.52956 0.907349 2.68838V11.259C0.907349 12.4148 1.84853 13.356 3.00441 13.356H6.43382L6.00147 14.6169C5.90319 14.5519 5.7874 14.5185 5.66961 14.5211C5.55181 14.5238 5.43763 14.5623 5.34235 14.6316L4.56823 15.1919C4.31353 15.3728 4.24676 15.731 4.43823 16.0016L6.73206 19.1719C6.82323 19.2984 6.95735 19.3801 7.11058 19.4043C7.18565 19.4166 7.26242 19.4139 7.33645 19.3964C7.41047 19.3788 7.48026 19.3467 7.54176 19.3019L8.31617 18.744C8.5147 18.5998 8.5947 18.354 8.53705 18.1293L8.875 18.0204C10.0044 17.6616 11.0662 17.1322 12.0309 16.4469C12.2338 16.3028 12.3721 16.0998 12.425 15.8734C12.4809 15.6234 12.4691 15.2704 12.1515 14.9175C12.2368 14.7704 12.2573 14.6351 12.2573 14.5293C12.2515 14.2704 12.1132 14.0146 11.8338 13.7469C11.8632 13.6234 11.8632 13.491 11.8279 13.3557H16.9926C18.1515 13.3557 19.0926 12.4146 19.0926 11.2587V2.68838ZM11.8515 15.7413C11.8309 15.8266 11.7721 15.909 11.6897 15.9678C10.7765 16.6179 9.76727 17.121 8.69853 17.459L8.29853 17.5884L6.47205 15.0619L7.69558 11.4766C7.76323 11.2854 7.96617 11.1766 8.16029 11.2266C8.36911 11.2796 8.49264 11.4913 8.4397 11.6972L8.04264 13.2501C8.03382 13.2854 8.03088 13.3237 8.0397 13.356C8.04558 13.4413 8.09264 13.5178 8.16323 13.5678C8.26323 13.6384 8.39853 13.6354 8.49853 13.5648L12.425 10.7501C12.4543 10.7293 12.4875 10.7144 12.5226 10.7064C12.5577 10.6983 12.5941 10.6973 12.6296 10.7033C12.6651 10.7093 12.6991 10.7222 12.7296 10.7414C12.7601 10.7605 12.7865 10.7855 12.8073 10.8148C12.8979 10.9504 12.8621 11.1154 12.7397 11.1972C12.7103 11.2178 9.20059 13.7054 9.44559 13.5325C9.31323 13.6266 9.28088 13.809 9.37794 13.9413C9.46411 14.0684 9.64411 14.1069 9.78676 14.0119L10.975 13.1648C11.1294 13.2625 11.3094 13.4613 11.2603 13.609L11.2573 13.6148L9.95441 14.5413C9.82206 14.6354 9.79264 14.8207 9.88676 14.9531C9.98 15.0854 10.1691 15.1098 10.2956 15.0207L11.4515 14.1972C11.6397 14.3854 11.6662 14.4972 11.6691 14.5413C11.6691 14.559 11.6691 14.6207 11.5544 14.7207C11.5492 14.7231 11.545 14.7273 11.5426 14.7325V14.7354L10.2926 15.6237C10.1603 15.7178 10.1309 15.9031 10.225 16.0354C10.33 16.1766 10.5162 16.1931 10.6338 16.1031L11.725 15.3266C11.8779 15.5031 11.8721 15.6443 11.8515 15.7413ZM18.5044 11.259C18.5044 12.0913 17.825 12.7678 16.9926 12.7678H11.5368L13.0779 11.6796C13.0897 11.6737 13.0985 11.6648 13.1073 11.656H14.7926C15.1897 11.656 15.5132 11.3325 15.5132 10.9325V10.0501C15.5132 9.65308 15.1897 9.32955 14.7926 9.32955H12.4044C12.0044 9.32955 11.6809 9.65308 11.6809 10.0501V10.559L8.81323 12.6148L9.01029 11.8443C9.14264 11.3237 8.82794 10.7913 8.31029 10.656C7.81617 10.5296 7.30441 10.806 7.1397 11.2854L6.63382 12.7678H3.00441C2.17205 12.7678 1.49558 12.0913 1.49558 11.259V2.68838C1.49558 1.85308 2.17205 1.17661 3.00441 1.17661H16.9926C17.825 1.17661 18.5044 1.85308 18.5044 2.68838V11.259Z" fill="#414141"/>
        <path d="M16.5927 6.02943H10.6015C10.1309 6.02943 9.74857 6.41178 9.74857 6.88237V7.59413C9.74857 8.06472 10.1309 8.44708 10.6015 8.44708H16.5927C17.0633 8.44708 17.4456 8.06472 17.4456 7.59413V6.88237C17.4456 6.41178 17.0633 6.02943 16.5927 6.02943ZM16.8574 7.59413C16.8574 7.74119 16.7397 7.85884 16.5927 7.85884H10.6015C10.4574 7.85884 10.3368 7.74119 10.3368 7.59413V6.88237C10.3368 6.73531 10.4574 6.61766 10.6015 6.61766H16.5927C16.7397 6.61766 16.8574 6.73531 16.8574 6.88237V7.59413ZM16.5927 2.77649H10.6015C10.1309 2.77649 9.74857 3.15884 9.74857 3.62943V4.34119C9.74857 4.81178 10.1309 5.19413 10.6015 5.19413H16.5927C17.0633 5.19413 17.4456 4.81178 17.4456 4.34119V3.62943C17.4456 3.15884 17.0633 2.77649 16.5927 2.77649ZM16.8574 4.34119C16.8574 4.48531 16.7397 4.6059 16.5927 4.6059H10.6015C10.4574 4.6059 10.3368 4.48531 10.3368 4.34119V3.62943C10.3368 3.48237 10.4574 3.36472 10.6015 3.36472H16.5927C16.7397 3.36472 16.8574 3.48237 16.8574 3.62943V4.34119ZM5.79269 2.37061C4.0074 2.37061 2.55151 3.82649 2.55151 5.61472C2.55151 7.36472 3.97387 8.85296 5.79269 8.85296C7.62328 8.85296 9.03387 7.35502 9.03387 5.61472C9.03387 3.82649 7.58093 2.37061 5.79269 2.37061ZM6.50151 5.73531C6.50151 5.81178 6.48975 5.88531 6.46622 5.9559C6.41986 6.11007 6.32497 6.24516 6.19567 6.34108C6.06637 6.437 5.90956 6.48861 5.74857 6.48825C5.59179 6.48931 5.43872 6.44063 5.31135 6.3492C5.18399 6.25777 5.0889 6.12831 5.03975 5.97943C5.01034 5.90296 4.99563 5.82061 4.99563 5.73531V5.01178H6.50151V5.73531ZM7.95151 7.14708C7.73641 6.74294 7.40972 6.40911 7.01034 6.18531C7.06328 6.04414 7.08975 5.89413 7.08975 5.73531V4.99708C7.08975 4.25884 6.48681 3.6559 5.74857 3.6559C5.0074 3.6559 4.4074 4.25884 4.4074 4.99708V5.73531C4.4074 5.90884 4.43975 6.07649 4.50151 6.22943C4.13523 6.45196 3.83555 6.76892 3.63387 7.14708C3.3113 6.70137 3.13831 6.1649 3.13975 5.61472C3.13975 4.15002 4.33093 2.95884 5.79269 2.95884C7.2574 2.95884 8.44563 4.15002 8.44563 5.61472C8.44563 6.17061 8.27798 6.69708 7.95151 7.14708Z" fill="#414141"/>
    </g>
    <defs>
        <clipPath id="clip0_560_5573">
            <rect width="20" height="20" fill="white"/>
        </clipPath>
    </defs>
</svg>
