<svg width="40" height="32" viewBox="0 0 40 32" fill="none" xmlns="http://www.w3.org/2000/svg">
    <path d="M33.0451 31.6404L18.308 16.82C16.81 17.0081 15.3943 17.4236 14.0609 18.0667C12.7276 18.71 11.5684 19.5488 10.5834 20.5829L7.98094 17.9292C8.96594 16.9442 10.0765 16.0915 11.3126 15.3713C12.5487 14.6513 13.857 14.1107 15.2376 13.7496L10.3014 8.81376C9.0983 9.35432 7.91024 10.0242 6.73719 10.8233C5.56413 11.6225 4.4851 12.5146 3.5001 13.4996L0.929688 10.8458C1.92552 9.85001 2.98802 8.94724 4.11719 8.13751C5.24635 7.32751 6.38469 6.62987 7.53219 6.0446L3.87219 2.38418L5.62844 0.62793L34.8847 29.8842L33.0451 31.6404ZM20.0001 29.5188C19.0579 29.5188 18.2614 29.1892 17.6105 28.53C16.96 27.8708 16.6347 27.0786 16.6347 26.1533C16.6347 25.2111 16.96 24.4147 17.6105 23.7642C18.2614 23.1136 19.0579 22.7883 20.0001 22.7883C20.9423 22.7883 21.7389 23.1136 22.3897 23.7642C23.0402 24.4147 23.3655 25.2111 23.3655 26.1533C23.3655 27.0786 23.0402 27.8708 22.3897 28.53C21.7389 29.1892 20.9423 29.5188 20.0001 29.5188ZM29.8334 20.0829L23.1797 13.4292C24.778 13.6514 26.3426 14.1433 27.8734 14.905C29.4046 15.667 30.7865 16.6643 32.0193 17.8971L29.8334 20.0829ZM36.5001 13.4996C34.3612 11.3607 31.8821 9.6871 29.0626 8.47876C26.2432 7.27043 23.2223 6.66626 20.0001 6.66626C19.4168 6.66626 18.8462 6.6871 18.2884 6.72876C17.7309 6.77043 17.1904 6.83293 16.6668 6.91626L13.4747 3.72418C14.4511 3.46557 15.4777 3.27168 16.5547 3.14251C17.6316 3.01307 18.7801 2.94835 20.0001 2.94835C23.7629 2.94835 27.2725 3.64974 30.5289 5.05251C33.7852 6.45529 36.6432 8.3864 39.1026 10.8458L36.5001 13.4996Z" fill="#424242"/>
</svg>
