<svg width="24" height="24" viewBox="0 0 24 24" fill="none" xmlns="http://www.w3.org/2000/svg">
    <path fill-rule="evenodd" clip-rule="evenodd" d="M11.1987 2.58703C11.697 2.31018 12.303 2.31018 12.8013 2.58704L20.0013 6.58704C20.5251 6.87804 20.85 7.43017 20.85 8.0294V15.9703C20.85 16.5695 20.5251 17.1216 20.0013 17.4126L12.8013 21.4126C12.303 21.6895 11.697 21.6895 11.1987 21.4126L3.99868 17.4126C3.47486 17.1216 3.14999 16.5695 3.14999 15.9703V8.0294C3.14999 7.43017 3.47487 6.87805 3.99868 6.58704L11.1987 2.58703ZM12.0728 3.89827C12.0275 3.8731 11.9725 3.8731 11.9271 3.89827L4.72715 7.89827C4.67953 7.92473 4.64999 7.97492 4.64999 8.0294V15.9703C4.64999 16.0247 4.67953 16.0749 4.72715 16.1014L11.9271 20.1014C11.9725 20.1266 12.0275 20.1266 12.0728 20.1014L19.2728 16.1014C19.3205 16.0749 19.35 16.0247 19.35 15.9703V8.0294C19.35 7.97492 19.3205 7.92473 19.2728 7.89827L12.0728 3.89827Z" fill="#111111"/>
    <path fill-rule="evenodd" clip-rule="evenodd" d="M7.24999 11.9998C7.24999 9.37648 9.37664 7.24983 12 7.24983C14.6233 7.24983 16.75 9.37648 16.75 11.9998C16.75 14.6232 14.6233 16.7498 12 16.7498C9.37664 16.7498 7.24999 14.6232 7.24999 11.9998ZM12 8.74983C10.2051 8.74983 8.74999 10.2049 8.74999 11.9998C8.74999 13.7948 10.2051 15.2498 12 15.2498C13.7949 15.2498 15.25 13.7948 15.25 11.9998C15.25 10.2049 13.7949 8.74983 12 8.74983Z" fill="#111111"/>
</svg>
