<svg width="20" height="20" viewBox="0 0 20 20" fill="none" xmlns="http://www.w3.org/2000/svg">
    <path fill-rule="evenodd" clip-rule="evenodd" d="M13.0417 3.55242L13.7195 3.63683C15.284 3.83167 16.4583 5.16133 16.4583 6.73787V15.4791C16.4583 17.0098 15.3181 18.3008 13.7991 18.49C11.2761 18.8042 8.72385 18.8042 6.20085 18.49C4.68184 18.3008 3.54163 17.0098 3.54163 15.4791V6.73787C3.54163 5.16133 4.71596 3.83167 6.28042 3.63683L6.95821 3.55242C7.2267 2.58505 8.11374 1.875 9.16663 1.875H10.8333C11.8862 1.875 12.7732 2.58505 13.0417 3.55242ZM6.87496 4.82244L6.4349 4.87725C5.49622 4.99415 4.79163 5.79195 4.79163 6.73787V15.4791C4.79163 16.3792 5.46211 17.1384 6.35534 17.2496C8.77574 17.551 11.2242 17.551 13.6446 17.2496C14.5378 17.1384 15.2083 16.3792 15.2083 15.4791V6.73787C15.2083 5.79195 14.5037 4.99415 13.565 4.87725L13.125 4.82244V5.83333C13.125 6.17851 12.8451 6.45833 12.5 6.45833H7.49996C7.15478 6.45833 6.87496 6.17851 6.87496 5.83333V4.82244ZM8.12496 4.16667C8.12496 3.59137 8.59133 3.125 9.16663 3.125H10.8333C11.4086 3.125 11.875 3.59137 11.875 4.16667V5.20833H8.12496V4.16667Z" fill="#414141"/>
    <path d="M13.125 9.79167C13.125 9.44649 12.8451 9.16667 12.5 9.16667H7.49996C7.15478 9.16667 6.87496 9.44649 6.87496 9.79167C6.87496 10.1368 7.15478 10.4167 7.49996 10.4167H12.5C12.8451 10.4167 13.125 10.1368 13.125 9.79167Z" fill="#414141"/>
    <path d="M12.2916 12.2917C12.2916 11.9465 12.0118 11.6667 11.6666 11.6667H7.49996C7.15478 11.6667 6.87496 11.9465 6.87496 12.2917C6.87496 12.6368 7.15478 12.9167 7.49996 12.9167H11.6666C12.0118 12.9167 12.2916 12.6368 12.2916 12.2917Z" fill="#414141"/>
</svg>
