<svg width="16" height="12" viewBox="0 0 16 12" fill="none" xmlns="http://www.w3.org/2000/svg">
    <path fill-rule="evenodd" clip-rule="evenodd" d="M11 2C11 0.895431 11.8954 0 13 0C14.1046 0 15 0.895431 15 2H11ZM7 2C7 1.29873 7.12031 0.625558 7.34141 0H1C0.447715 0 0 0.447715 0 1C0 1.55228 0.447715 2 1 2H7ZM7.80269 5C8.26707 5.80277 8.91211 6.48797 9.68221 7H1C0.447715 7 0 6.55228 0 6C0 5.44772 0.447715 5 1 5H7.80269ZM1 10C0.447715 10 0 10.4477 0 11C0 11.5523 0.447715 12 1 12H15C15.5523 12 16 11.5523 16 11C16 10.4477 15.5523 10 15 10H1Z" fill="#F6F6F6"/>
</svg>
