<svg width="24" height="24" viewBox="0 0 24 24" fill="none" xmlns="http://www.w3.org/2000/svg">
    <path d="M3.58579 17.4142L4.11612 16.8839L3.58579 17.4142ZM20.4142 17.4142L19.8839 16.8839L20.4142 17.4142ZM20.4142 6.58579L20.9445 6.05546L20.4142 6.58579ZM7 6.75H17V5.25H7V6.75ZM20.25 10V14H21.75V10H20.25ZM17 17.25H7V18.75H17V17.25ZM3.75 14V10H2.25V14H3.75ZM7 17.25C6.03599 17.25 5.38843 17.2484 4.90539 17.1835C4.44393 17.1214 4.24643 17.0142 4.11612 16.8839L3.05546 17.9445C3.51093 18.4 4.07773 18.5857 4.70552 18.6701C5.31174 18.7516 6.07839 18.75 7 18.75V17.25ZM2.25 14C2.25 14.9216 2.24841 15.6883 2.32991 16.2945C2.41432 16.9223 2.59999 17.4891 3.05546 17.9445L4.11612 16.8839C3.9858 16.7536 3.87858 16.5561 3.81654 16.0946C3.75159 15.6116 3.75 14.964 3.75 14H2.25ZM20.25 14C20.25 14.964 20.2484 15.6116 20.1835 16.0946C20.1214 16.5561 20.0142 16.7536 19.8839 16.8839L20.9445 17.9445C21.4 17.4891 21.5857 16.9223 21.6701 16.2945C21.7516 15.6883 21.75 14.9216 21.75 14H20.25ZM17 18.75C17.9216 18.75 18.6883 18.7516 19.2945 18.6701C19.9223 18.5857 20.4891 18.4 20.9445 17.9445L19.8839 16.8839C19.7536 17.0142 19.5561 17.1214 19.0946 17.1835C18.6116 17.2484 17.964 17.25 17 17.25V18.75ZM17 6.75C17.964 6.75 18.6116 6.75159 19.0946 6.81654C19.5561 6.87858 19.7536 6.9858 19.8839 7.11612L20.9445 6.05546C20.4891 5.59999 19.9223 5.41432 19.2945 5.32991C18.6883 5.24841 17.9216 5.25 17 5.25V6.75ZM21.75 10C21.75 9.07839 21.7516 8.31174 21.6701 7.70552C21.5857 7.07773 21.4 6.51093 20.9445 6.05546L19.8839 7.11612C20.0142 7.24643 20.1214 7.44393 20.1835 7.90539C20.2484 8.38843 20.25 9.03599 20.25 10H21.75ZM7 5.25C6.07839 5.25 5.31174 5.24841 4.70552 5.32991C4.07773 5.41432 3.51093 5.59999 3.05546 6.05546L4.11612 7.11612C4.24643 6.9858 4.44393 6.87858 4.90539 6.81654C5.38843 6.75159 6.03599 6.75 7 6.75V5.25ZM3.75 10C3.75 9.03599 3.75159 8.38843 3.81654 7.90539C3.87858 7.44393 3.9858 7.24643 4.11612 7.11612L3.05546 6.05546C2.59999 6.51093 2.41432 7.07773 2.32991 7.70552C2.24841 8.31174 2.25 9.07839 2.25 10H3.75Z" fill="#F6F6F6"/>
    <path d="M4 7L20 17" stroke="#F6F6F6" stroke-width="1.5" stroke-linecap="round"/>
    <circle cx="12" cy="12" r="2.25" stroke="#F6F6F6" stroke-width="1.5"/>
</svg>
