<svg width="33" height="32" viewBox="0 0 33 32" fill="none" xmlns="http://www.w3.org/2000/svg">
    <path d="M17.2066 27.2268H8.77996C4.56663 27.2268 3.16663 24.4268 3.16663 21.6134V10.3868C3.16663 6.17344 4.56663 4.77344 8.77996 4.77344H17.2066C21.42 4.77344 22.82 6.17344 22.82 10.3868V21.6134C22.82 25.8268 21.4066 27.2268 17.2066 27.2268Z" stroke="#292D32" stroke-width="1.5" stroke-linecap="round" stroke-linejoin="round"/>
    <path d="M26.5266 22.8001L22.82 20.2001V11.7868L26.5266 9.18677C28.34 7.9201 29.8333 8.69344 29.8333 10.9201V21.0801C29.8333 23.3068 28.34 24.0801 26.5266 22.8001Z" stroke="#292D32" stroke-width="1.5" stroke-linecap="round" stroke-linejoin="round"/>
    <path d="M15.8333 14.6668C16.9379 14.6668 17.8333 13.7713 17.8333 12.6668C17.8333 11.5622 16.9379 10.6668 15.8333 10.6668C14.7287 10.6668 13.8333 11.5622 13.8333 12.6668C13.8333 13.7713 14.7287 14.6668 15.8333 14.6668Z" stroke="#292D32" stroke-width="1.5" stroke-linecap="round" stroke-linejoin="round"/>
</svg>
