<svg width="40" height="40" viewBox="0 0 40 40" fill="none" xmlns="http://www.w3.org/2000/svg">
<path d="M23.75 6.66797H16.25C10.9467 6.66797 8.29505 6.66797 6.64752 8.34164C5 10.0153 5 12.7091 5 18.0965V21.9061C5 27.2935 5 29.9873 6.64752 31.661C8.29505 33.3346 10.9467 33.3346 16.25 33.3346H23.75C29.0533 33.3346 31.705 33.3346 33.3525 31.661C35 29.9873 35 27.2935 35 21.9061V18.0965C35 12.7091 35 10.0153 33.3525 8.34164C31.705 6.66797 29.0533 6.66797 23.75 6.66797Z" stroke="#33363F" stroke-width="2"/>
<path d="M11.666 13.332H16.666" stroke="#33363F" stroke-width="2" stroke-linecap="round"/>
<path d="M25 24.668V22.0013C25 21.0585 25 20.5871 25.2929 20.2942C25.5858 20.0013 26.0572 20.0013 27 20.0013H33C33.9428 20.0013 34.4142 20.0013 34.7071 20.2942C35 20.5871 35 21.0585 35 22.0013V24.668C35 25.6108 35 26.0822 34.7071 26.3751C34.4142 26.668 33.9428 26.668 33 26.668H27C26.0572 26.668 25.5858 26.668 25.2929 26.3751C25 26.0822 25 25.6108 25 24.668Z" stroke="#33363F" stroke-width="2"/>
</svg>
